<svg width="24" height="24" viewBox="0 0 24 24" fill="none" xmlns="http://www.w3.org/2000/svg">
<path d="M18.625 5.36389C18.4077 5.14955 18.1147 5.02935 17.8095 5.0293H6.19169C5.88357 5.0293 5.58806 5.1517 5.37019 5.36957C5.15231 5.58745 5.02991 5.88295 5.02991 6.19107C5.02991 6.4992 5.15231 6.7947 5.37019 7.01258C5.58806 7.23045 5.88357 7.35285 6.19169 7.35285H15.0049L5.36915 16.9863C5.151 17.2045 5.02844 17.5003 5.02844 17.8088C5.02844 18.1174 5.151 18.4132 5.36915 18.6314C5.5873 18.8495 5.88318 18.9721 6.19169 18.9721C6.5002 18.9721 6.79608 18.8495 7.01423 18.6314L16.6477 8.9956V17.8088C16.6477 18.117 16.7701 18.4125 16.988 18.6303C17.2058 18.8482 17.5013 18.9706 17.8095 18.9706C18.1176 18.9706 18.4131 18.8482 18.631 18.6303C18.8488 18.4125 18.9712 18.117 18.9712 17.8088V6.19107C18.9712 5.88582 18.851 5.59285 18.6366 5.37551L18.625 5.36389Z" fill="white"/>
</svg>
