<svg width="15" height="13" viewBox="0 0 15 13" fill="none" xmlns="http://www.w3.org/2000/svg">
<path d="M11.9663 7.14583L7.88294 11.2292C7.71628 11.3958 7.63628 11.5903 7.64294 11.8125C7.64961 12.0347 7.73655 12.2292 7.90378 12.3958C8.07044 12.5486 8.26489 12.6286 8.48711 12.6358C8.70933 12.6431 8.90378 12.5631 9.07044 12.3958L14.5704 6.89583C14.6538 6.8125 14.7129 6.72222 14.7479 6.625C14.7829 6.52778 14.7999 6.42361 14.7988 6.3125C14.7977 6.20139 14.7802 6.09722 14.7463 6C14.7124 5.90278 14.6535 5.8125 14.5696 5.72917L9.06961 0.229166C8.91683 0.0763886 8.72572 0 8.49628 0C8.26683 0 8.06905 0.0763886 7.90294 0.229166C7.73628 0.395833 7.65294 0.593889 7.65294 0.823333C7.65294 1.05278 7.73628 1.25056 7.90294 1.41667L11.9663 5.47917H0.833247C0.597136 5.47917 0.399081 5.55917 0.239081 5.71917C0.0790815 5.87917 -0.000641823 6.07694 -8.58307e-05 6.3125C0.000470161 6.54806 0.0804691 6.74611 0.239914 6.90667C0.399359 7.06722 0.597136 7.14694 0.833247 7.14583H11.9663Z" fill="#281D21"/>
</svg>
