<svg width="6" height="4" viewBox="0 0 6 4" fill="none" xmlns="http://www.w3.org/2000/svg">
<path d="M2.63372 3.12209L0.104651 0.593023C0.0697675 0.558139 0.043721 0.520464 0.0265117 0.479999C0.00930239 0.439534 0.000465116 0.395814 0 0.348837C0 0.255814 0.032093 0.174418 0.096279 0.104651C0.160465 0.0348834 0.244651 0 0.348837 0H5.65116C5.75581 0 5.84023 0.0348834 5.90441 0.104651C5.9686 0.174418 6.00046 0.255814 5.99999 0.348837C5.99999 0.372093 5.96511 0.453488 5.89534 0.593023L3.36628 3.12209C3.30814 3.18023 3.25 3.22093 3.19186 3.24418C3.13372 3.26744 3.06977 3.27907 3 3.27907C2.93023 3.27907 2.86628 3.26744 2.80814 3.24418C2.75 3.22093 2.69186 3.18023 2.63372 3.12209Z" fill="#848484"/>
</svg>
