<svg width="20" height="20" viewBox="0 0 20 20" fill="none" xmlns="http://www.w3.org/2000/svg">
<g clip-path="url(#clip0_187_328)">
<path d="M13 6.44543V4.44543C13 4.18022 12.8946 3.92586 12.7071 3.73833C12.5196 3.55079 12.2652 3.44543 12 3.44543H8C7.73478 3.44543 7.48043 3.55079 7.29289 3.73833C7.10536 3.92586 7 4.18022 7 4.44543V6.44543M15.5 6.44543H4.5C4.23478 6.44543 3.98043 6.55079 3.79289 6.73833C3.60536 6.92586 3.5 7.18022 3.5 7.44543V15.4454C3.5 15.7107 3.60536 15.965 3.79289 16.1525C3.98043 16.3401 4.23478 16.4454 4.5 16.4454H15.5C15.7652 16.4454 16.0196 16.3401 16.2071 16.1525C16.3946 15.965 16.5 15.7107 16.5 15.4454V7.44543C16.5 7.18022 16.3946 6.92586 16.2071 6.73833C16.0196 6.55079 15.7652 6.44543 15.5 6.44543Z" stroke="#6D6D6D" stroke-width="1.2" stroke-linecap="round" stroke-linejoin="round"/>
</g>
<defs>
<clipPath id="clip0_187_328">
<rect width="20" height="20" fill="white"/>
</clipPath>
</defs>
</svg>
