<svg width="13" height="10" viewBox="0 0 13 10" fill="none" xmlns="http://www.w3.org/2000/svg">
<path d="M3.88639 7.636L1.27894 5.02855C1.13844 4.88805 0.947883 4.80912 0.749186 4.80912C0.55049 4.80912 0.359931 4.88805 0.219432 5.02855C0.0789319 5.16905 0 5.35961 0 5.55831C0 5.65669 0.0193784 5.75411 0.0570286 5.84501C0.0946787 5.9359 0.149863 6.01849 0.219432 6.08806L3.36039 9.22902C3.65345 9.52208 4.12684 9.52208 4.4199 9.22902L12.37 1.27894C12.5105 1.13844 12.5894 0.947883 12.5894 0.749186C12.5894 0.55049 12.5105 0.359931 12.37 0.219432C12.2295 0.0789321 12.0389 0 11.8402 0C11.6415 0 11.451 0.0789321 11.3105 0.219432L3.88639 7.636Z" fill="#2C599D"/>
</svg>
