<svg width="20" height="16" viewBox="0 0 20 16" fill="none" xmlns="http://www.w3.org/2000/svg">
<path d="M13.1816 0C14.2092 1.65272e-10 15.0092 0.000470653 15.6504 0.0527344C16.3016 0.105934 16.8308 0.21449 17.3066 0.457031C18.0971 0.859698 18.7399 1.50258 19.1426 2.29297C19.3843 2.76897 19.4947 3.29873 19.5479 3.9502C19.6001 4.59134 19.5996 5.39246 19.5996 6.41895V9.44824C19.5996 10.4758 19.6001 11.2758 19.5479 11.917C19.4947 12.5683 19.3852 13.0973 19.1426 13.5732C18.7399 14.3637 18.0971 15.0065 17.3066 15.4092C16.8307 15.6509 16.3017 15.7612 15.6504 15.8145C15.0092 15.8667 14.2082 15.8662 13.1816 15.8662H6.41895C5.39152 15.8662 4.59134 15.8667 3.9502 15.8145C3.29873 15.7613 2.76897 15.6518 2.29297 15.4092C1.50259 15.0065 0.859694 14.3637 0.457031 13.5732C0.215432 13.0974 0.10593 12.5682 0.0527344 11.917C0.000469551 11.2758 0 10.4749 0 9.44824V6.41895C0 5.3915 0.000491207 4.59228 0.0527344 3.9502C0.105934 3.29873 0.214365 2.76897 0.457031 2.29297C0.859727 1.50253 1.50253 0.859727 2.29297 0.457031C2.76897 0.215298 3.29873 0.105934 3.9502 0.0527344C4.59135 0.000491237 5.39243 0 6.41895 0H13.1816ZM6.89648 14.9336H13.1602C14.2127 14.9336 14.9751 14.9332 15.5742 14.8838C16.1676 14.8353 16.5599 14.7423 16.8828 14.5781C17.4977 14.2649 17.9983 13.7643 18.3115 13.1494C18.4757 12.8266 18.5687 12.4341 18.6172 11.8398C18.6666 11.2417 18.667 10.4793 18.667 9.42676V6.44043C18.667 5.38763 18.6667 4.62463 18.6172 4.02637C18.5687 3.4319 18.4758 3.03971 18.3115 2.7168C17.9983 2.10192 17.4977 1.60229 16.8828 1.28906C16.5599 1.12484 16.1677 1.03095 15.5732 0.982422C14.9751 0.93299 14.2126 0.933594 13.1602 0.933594H6.89648V14.9336Z" fill="#848484"/>
</svg>
