<svg width="20" height="20" viewBox="0 0 20 20" fill="none" xmlns="http://www.w3.org/2000/svg">
<path d="M2.5 5C2.5 4.83424 2.56585 4.67527 2.68306 4.55806C2.80027 4.44085 2.95924 4.375 3.125 4.375H14.0099C14.1757 4.375 14.3347 4.44085 14.4519 4.55806C14.5691 4.67527 14.6349 4.83424 14.6349 5C14.6349 5.16576 14.5691 5.32473 14.4519 5.44194C14.3347 5.55915 14.1757 5.625 14.0099 5.625H3.125C2.95924 5.625 2.80027 5.55915 2.68306 5.44194C2.56585 5.32473 2.5 5.16576 2.5 5ZM3.18505 10.4009H7.56005C7.72581 10.4009 7.88478 10.335 8.00199 10.2178C8.1192 10.1006 8.18505 9.94165 8.18505 9.77589C8.18505 9.61013 8.1192 9.45116 8.00199 9.33395C7.88478 9.21674 7.72581 9.15089 7.56005 9.15089H3.18505C3.01929 9.15089 2.86032 9.21674 2.74311 9.33395C2.6259 9.45116 2.56005 9.61013 2.56005 9.77589C2.56005 9.94165 2.6259 10.1006 2.74311 10.2178C2.86032 10.335 3.01929 10.4009 3.18505 10.4009ZM8.75 14.1067H3.125C2.95924 14.1067 2.80027 14.1726 2.68306 14.2898C2.56585 14.407 2.5 14.566 2.5 14.7317C2.5 14.8975 2.56585 15.0565 2.68306 15.1737C2.80027 15.2909 2.95924 15.3567 3.125 15.3567H8.75C8.91576 15.3567 9.07473 15.2909 9.19194 15.1737C9.30915 15.0565 9.375 14.8975 9.375 14.7317C9.375 14.566 9.30915 14.407 9.19194 14.2898C9.07473 14.1726 8.91576 14.1067 8.75 14.1067ZM18.5227 11.0133L16.7633 12.4657L17.2992 14.6305C17.3286 14.7499 17.3221 14.8752 17.2806 14.9909C17.2391 15.1066 17.1644 15.2075 17.0658 15.281C16.9673 15.3545 16.8492 15.3972 16.7265 15.4039C16.6038 15.4107 16.4818 15.381 16.3758 15.3188L14.375 14.1414L12.3742 15.3188C12.2682 15.381 12.1462 15.4107 12.0235 15.4039C11.9008 15.3972 11.7827 15.3545 11.6842 15.281C11.5856 15.2075 11.5109 15.1066 11.4694 14.9909C11.4279 14.8752 11.4214 14.7499 11.4508 14.6305L11.9859 12.4657L10.2273 11.0133C10.1314 10.934 10.0614 10.8279 10.0262 10.7085C9.991 10.5891 9.99223 10.462 10.0297 10.3433C10.0673 10.2247 10.1393 10.1199 10.2368 10.0424C10.3342 9.96501 10.4525 9.91841 10.5766 9.90863L12.9078 9.72817L13.8008 7.65785C13.849 7.54557 13.9291 7.4499 14.0312 7.38268C14.1333 7.31546 14.2528 7.27963 14.375 7.27963C14.4972 7.27963 14.6167 7.31546 14.7188 7.38268C14.8209 7.4499 14.901 7.54557 14.9492 7.65785L15.8422 9.72817L18.1734 9.90863C18.2975 9.91841 18.4158 9.96501 18.5132 10.0424C18.6107 10.1199 18.6827 10.2247 18.7203 10.3433C18.7578 10.462 18.759 10.5891 18.7238 10.7085C18.6886 10.8279 18.6186 10.934 18.5227 11.0133ZM16.5328 11.0352L15.3695 10.9454C15.2561 10.9366 15.1471 10.8971 15.0545 10.831C14.9618 10.7649 14.8889 10.6748 14.8438 10.5704L14.375 9.48285L13.9063 10.5704C13.8611 10.6748 13.7882 10.7649 13.6955 10.831C13.6029 10.8971 13.4939 10.9366 13.3805 10.9454L12.2172 11.0352L13.0852 11.7524C13.1761 11.8273 13.244 11.9264 13.281 12.0382C13.3181 12.15 13.3227 12.27 13.2945 12.3844L13.0211 13.4875L14.0578 12.8774C14.1539 12.8208 14.2634 12.7909 14.375 12.7909C14.4866 12.7909 14.5961 12.8208 14.6922 12.8774L15.7289 13.4875L15.4555 12.3844C15.4273 12.27 15.4319 12.15 15.469 12.0382C15.506 11.9264 15.5739 11.8273 15.6648 11.7524L16.5328 11.0352Z" fill="#848484"/>
</svg>
