<svg width="15" height="15" viewBox="0 0 15 15" fill="none" xmlns="http://www.w3.org/2000/svg">
<path d="M7.5 15C3.35775 15 0 11.6423 0 7.5C0 3.35775 3.35775 0 7.5 0C11.6423 0 15 3.35775 15 7.5C15 11.6423 11.6423 15 7.5 15ZM7.5 13.9538C9.21164 13.9538 10.8532 13.2738 12.0635 12.0635C13.2738 10.8532 13.9538 9.21164 13.9538 7.5C13.9538 5.78836 13.2738 4.14682 12.0635 2.93651C10.8532 1.7262 9.21164 1.04625 7.5 1.04625C5.78836 1.04625 4.14682 1.7262 2.93651 2.93651C1.7262 4.14682 1.04625 5.78836 1.04625 7.5C1.04625 9.21164 1.7262 10.8532 2.93651 12.0635C4.14682 13.2738 5.78836 13.9538 7.5 13.9538ZM7.60875 9.5925C7.32 9.5925 7.086 9.35775 7.086 9.069V3.4005C7.09112 3.26519 7.14848 3.13712 7.24603 3.0432C7.34357 2.94928 7.47371 2.89681 7.60913 2.89681C7.74454 2.89681 7.87468 2.94928 7.97222 3.0432C8.06977 3.13712 8.12713 3.26519 8.13225 3.4005V9.06975C8.13225 9.3585 7.89825 9.5925 7.60875 9.5925ZM7.58775 11.6858C7.40276 11.6858 7.22535 11.6123 7.09454 11.4815C6.96374 11.3507 6.89025 11.1732 6.89025 10.9882C6.89025 10.8033 6.96374 10.6258 7.09454 10.495C7.22535 10.3642 7.40276 10.2908 7.58775 10.2908C7.77274 10.2908 7.95015 10.3642 8.08096 10.495C8.21176 10.6258 8.28525 10.8033 8.28525 10.9882C8.28525 11.1732 8.21176 11.3507 8.08096 11.4815C7.95015 11.6123 7.77274 11.6858 7.58775 11.6858Z" fill="#FF6B6B"/>
</svg>
