<svg width="15" height="15" viewBox="0 0 15 15" fill="none" xmlns="http://www.w3.org/2000/svg">
<path d="M7.5 0C11.6423 0 15 3.35775 15 7.5C15 11.6423 11.6423 15 7.5 15C3.35775 15 0 11.6423 0 7.5C0 3.35775 3.35775 0 7.5 0ZM7.5 1.04625C5.78836 1.04625 4.14682 1.7262 2.93651 2.93651C1.7262 4.14682 1.04625 5.78836 1.04625 7.5C1.04625 9.21164 1.7262 10.8532 2.93651 12.0635C4.14682 13.2738 5.78836 13.9537 7.5 13.9537C9.21164 13.9537 10.8532 13.2738 12.0635 12.0635C13.2738 10.8532 13.9537 9.21164 13.9537 7.5C13.9537 5.78836 13.2738 4.14682 12.0635 2.93651C10.8532 1.7262 9.21164 1.04625 7.5 1.04625ZM7.39125 5.4075C7.68 5.4075 7.914 5.64225 7.914 5.931V11.5995C7.90888 11.7348 7.85152 11.8629 7.75397 11.9568C7.65643 12.0507 7.52629 12.1032 7.39087 12.1032C7.25546 12.1032 7.12532 12.0507 7.02778 11.9568C6.93023 11.8629 6.87287 11.7348 6.86775 11.5995V5.93025C6.86775 5.6415 7.10175 5.4075 7.39125 5.4075ZM7.41225 3.31425C7.59724 3.31425 7.77465 3.38774 7.90546 3.51854C8.03626 3.64935 8.10975 3.82676 8.10975 4.01175C8.10975 4.19674 8.03626 4.37415 7.90546 4.50496C7.77465 4.63576 7.59724 4.70925 7.41225 4.70925C7.22726 4.70925 7.04985 4.63576 6.91904 4.50496C6.78824 4.37415 6.71475 4.19674 6.71475 4.01175C6.71475 3.82676 6.78824 3.64935 6.91904 3.51854C7.04985 3.38774 7.22726 3.31425 7.41225 3.31425Z" fill="black"/>
</svg>
