<svg width="20" height="20" viewBox="0 0 20 20" fill="none" xmlns="http://www.w3.org/2000/svg">
<path d="M10 2.5C14.1423 2.5 17.5 5.85775 17.5 10C17.5 14.1423 14.1423 17.5 10 17.5C5.85775 17.5 2.5 14.1423 2.5 10C2.5 5.85775 5.85775 2.5 10 2.5ZM10 3.54625C8.28836 3.54625 6.64682 4.2262 5.43651 5.43651C4.2262 6.64682 3.54625 8.28836 3.54625 10C3.54625 11.7116 4.2262 13.3532 5.43651 14.5635C6.64682 15.7738 8.28836 16.4537 10 16.4537C11.7116 16.4537 13.3532 15.7738 14.5635 14.5635C15.7738 13.3532 16.4537 11.7116 16.4537 10C16.4537 8.28836 15.7738 6.64682 14.5635 5.43651C13.3532 4.2262 11.7116 3.54625 10 3.54625ZM9.89125 7.9075C10.18 7.9075 10.414 8.14225 10.414 8.431V14.0995C10.4089 14.2348 10.3515 14.3629 10.254 14.4568C10.1564 14.5507 10.0263 14.6032 9.89087 14.6032C9.75546 14.6032 9.62532 14.5507 9.52778 14.4568C9.43023 14.3629 9.37287 14.2348 9.36775 14.0995V8.43025C9.36775 8.1415 9.60175 7.9075 9.89125 7.9075ZM9.91225 5.81425C10.0972 5.81425 10.2747 5.88774 10.4055 6.01854C10.5363 6.14935 10.6097 6.32676 10.6097 6.51175C10.6097 6.69674 10.5363 6.87415 10.4055 7.00496C10.2747 7.13576 10.0972 7.20925 9.91225 7.20925C9.72726 7.20925 9.54985 7.13576 9.41904 7.00496C9.28824 6.87415 9.21475 6.69674 9.21475 6.51175C9.21475 6.32676 9.28824 6.14935 9.41904 6.01854C9.54985 5.88774 9.72726 5.81425 9.91225 5.81425Z" fill="white"/>
</svg>
