<svg width="20" height="20" viewBox="0 0 20 20" fill="none" xmlns="http://www.w3.org/2000/svg">
<path d="M10.0001 18.2775C9.77621 18.2783 9.55529 18.2266 9.35501 18.1266C9.15473 18.0266 8.98066 17.8811 8.84673 17.7017L4.62923 12.0834C3.93141 11.0993 3.51763 9.94228 3.43315 8.73886C3.34866 7.53544 3.59672 6.33197 4.1502 5.26005C4.70368 4.18813 5.54127 3.28906 6.57135 2.66115C7.60144 2.03324 8.78436 1.70067 9.99073 1.69983C11.1971 1.69899 12.3805 2.0299 13.4115 2.65637C14.4424 3.28284 15.2813 4.18075 15.8362 5.25189C16.3912 6.32303 16.641 7.52616 16.5581 8.72969C16.4753 9.93322 16.0632 11.0908 15.3667 12.0759L11.1542 17.7C11.0204 17.8798 10.8463 18.0257 10.6458 18.126C10.4454 18.2263 10.2242 18.2782 10.0001 18.2775ZM9.9934 2.55502C8.58478 2.5498 7.22471 3.06941 6.1784 4.01252C5.12857 4.94967 4.45947 6.23973 4.29816 7.63772C4.13686 9.03571 4.49458 10.4442 5.3034 11.5959L9.51257 17.2017C9.56923 17.2772 9.64271 17.3386 9.72718 17.3808C9.81165 17.423 9.90479 17.445 9.99923 17.445C10.094 17.4453 10.1874 17.4234 10.2722 17.3812C10.357 17.3389 10.4307 17.2775 10.4876 17.2017L14.6909 11.59C15.2644 10.7785 15.6169 9.83168 15.7138 8.84267C15.8107 7.85366 15.6487 6.85646 15.2436 5.94903C14.8385 5.0416 14.2043 4.25516 13.4033 3.66697C12.6024 3.07878 11.6621 2.70908 10.6751 2.59419C10.4488 2.56784 10.2212 2.55476 9.9934 2.55502Z" fill="#6D6D6D" stroke="#6D6D6D" stroke-width="0.5"/>
<path d="M9.99984 10.4167C9.58779 10.4167 9.185 10.2945 8.8424 10.0656C8.4998 9.83664 8.23277 9.51127 8.07509 9.13059C7.91741 8.74991 7.87615 8.33102 7.95654 7.9269C8.03692 7.52277 8.23534 7.15155 8.5267 6.8602C8.81806 6.56884 9.18927 6.37042 9.5934 6.29003C9.99753 6.20965 10.4164 6.2509 10.7971 6.40859C11.1778 6.56627 11.5031 6.83329 11.7321 7.1759C11.961 7.5185 12.0832 7.92129 12.0832 8.33333C12.0832 8.88587 11.8637 9.41577 11.473 9.80647C11.0823 10.1972 10.5524 10.4167 9.99984 10.4167ZM9.99984 7.08333C9.75261 7.08333 9.51094 7.15665 9.30538 7.294C9.09981 7.43135 8.9396 7.62657 8.84499 7.85498C8.75038 8.08339 8.72563 8.33472 8.77386 8.5772C8.82209 8.81967 8.94114 9.0424 9.11595 9.21722C9.29077 9.39203 9.5135 9.51108 9.75598 9.55932C9.99845 9.60755 10.2498 9.58279 10.4782 9.48818C10.7066 9.39357 10.9018 9.23336 11.0392 9.0278C11.1765 8.82224 11.2498 8.58056 11.2498 8.33333C11.2498 8.00181 11.1181 7.68387 10.8837 7.44945C10.6493 7.21503 10.3314 7.08333 9.99984 7.08333Z" fill="#6D6D6D" stroke="#6D6D6D" stroke-width="0.5"/>
</svg>
