<svg width="14" height="12" viewBox="0 0 14 12" fill="none" xmlns="http://www.w3.org/2000/svg">
<path d="M7.10352 10.1348C7.29193 10.1348 7.47322 10.2095 7.60645 10.3428C7.73947 10.4759 7.81435 10.6565 7.81445 10.8447C7.81445 11.0331 7.73962 11.2144 7.60645 11.3477C7.47322 11.4809 7.29193 11.5557 7.10352 11.5557H0.709961C0.521682 11.5557 0.34121 11.4807 0.208008 11.3477C0.0747783 11.2144 0 11.0331 0 10.8447C0.000105943 10.6565 0.0748726 10.4759 0.208008 10.3428C0.341218 10.2097 0.52164 10.1348 0.709961 10.1348H7.10352ZM11.0371 4.97559C11.4136 4.97581 11.7188 5.28168 11.7188 5.6582V7.13574H13.1963C13.5729 7.13576 13.8779 7.44075 13.8779 7.81738C13.8779 8.19403 13.5729 8.499 13.1963 8.49902H11.7188V9.97754C11.7185 10.3538 11.4134 10.659 11.0371 10.6592C10.6606 10.6592 10.3547 10.354 10.3545 9.97754V8.49902H8.87695C8.50029 8.49902 8.19531 8.19404 8.19531 7.81738C8.19533 7.44074 8.50031 7.13574 8.87695 7.13574H10.3545V5.6582C10.3545 5.28154 10.6604 4.97559 11.0371 4.97559ZM5.75098 4.78516C5.93939 4.78516 6.12068 4.85993 6.25391 4.99316C6.38708 5.12639 6.46191 5.30772 6.46191 5.49609C6.46182 5.68428 6.38691 5.86492 6.25391 5.99805C6.12068 6.13128 5.93939 6.20605 5.75098 6.20605H0.77832C0.589905 6.20605 0.40862 6.13128 0.275391 5.99805C0.142408 5.86492 0.0674737 5.68426 0.0673828 5.49609C0.0673828 5.30774 0.142237 5.12638 0.275391 4.99316C0.40862 4.85993 0.589905 4.78516 0.77832 4.78516H5.75098ZM13.083 0C13.2713 0.00011556 13.4518 0.0748883 13.585 0.208008C13.7181 0.341129 13.7928 0.521711 13.793 0.709961C13.793 0.898376 13.7182 1.07966 13.585 1.21289C13.4518 1.34599 13.2712 1.42078 13.083 1.4209H0.709961C0.521668 1.4209 0.341212 1.34596 0.208008 1.21289C0.0747783 1.07966 0 0.898376 0 0.709961C0.000121452 0.521711 0.0748864 0.341129 0.208008 0.208008C0.341215 0.0749218 0.521654 0 0.709961 0H13.083Z" fill="#FDA500"/>
</svg>
