<svg width="13" height="16" viewBox="0 0 13 16" fill="none" xmlns="http://www.w3.org/2000/svg">
<path d="M6.05991 15.1591C9.05734 15.1591 11.5197 12.7837 11.5197 9.73496C11.5197 8.9866 11.4815 8.18438 11.0666 6.93735C10.6516 5.69033 10.5683 5.52945 10.1296 4.75926C9.94219 6.33059 8.93941 6.98577 8.68462 7.18159C8.68462 6.97776 8.07822 4.72577 7.15842 3.37792C6.25537 2.05556 5.02727 1.18818 4.30731 0.599609C4.30731 1.71705 3.99319 3.37829 3.54293 4.22492C3.09305 5.07119 3.0086 5.10213 2.44624 5.73183C1.88388 6.36153 1.62618 6.55626 1.15591 7.32063C0.685635 8.08501 0.600098 9.10308 0.600098 9.85144C0.600098 12.9002 3.06247 15.1591 6.05991 15.1591Z" stroke="#FF6B6B" stroke-width="1.2" stroke-linejoin="round"/>
</svg>
