<svg width="17" height="15" viewBox="0 0 17 15" fill="none" xmlns="http://www.w3.org/2000/svg">
<path fill-rule="evenodd" clip-rule="evenodd" d="M6.70601 0.768479C7.29804 -0.256131 8.77712 -0.256188 9.3691 0.768479L15.8671 12.0234C16.4585 13.0485 15.7187 14.3299 14.5351 14.33H1.54C0.356495 14.3299 -0.383267 13.0484 0.207964 12.0234L6.70601 0.768479ZM8.33003 1.36907C8.20001 1.14392 7.87515 1.14398 7.74507 1.36907L1.24703 12.623C1.11744 12.8481 1.28017 13.1297 1.54 13.1298H14.5351C14.795 13.1297 14.9578 12.8481 14.8281 12.623L8.33003 1.36907ZM8.03707 10.8202C8.31789 10.8202 8.5456 11.0473 8.54585 11.328C8.54576 11.609 8.31799 11.8368 8.03707 11.8368C7.75639 11.8365 7.52837 11.6088 7.52828 11.328C7.52853 11.0475 7.75649 10.8205 8.03707 10.8202ZM8.03707 4.71477C8.31805 4.71477 8.54585 4.94258 8.54585 5.22356V9.29387C8.54555 9.57459 8.31786 9.80266 8.03707 9.80266C7.75652 9.80237 7.52858 9.57441 7.52828 9.29387V5.22356C7.52828 4.94276 7.75633 4.71506 8.03707 4.71477Z" fill="#848484"/>
</svg>
