<svg width="20" height="20" viewBox="0 0 20 20" fill="none" xmlns="http://www.w3.org/2000/svg">
<g clip-path="url(#clip0_187_297)">
<path fill-rule="evenodd" clip-rule="evenodd" d="M9.26367 1.83806C9.87339 1.91493 10.437 2.2034 10.8555 2.65349C11.2738 3.1035 11.5204 3.6864 11.5527 4.29997H14.6123C14.8826 4.30004 15.1419 4.40774 15.333 4.5988C15.5242 4.79002 15.6318 5.05005 15.6318 5.32048V8.97575H16.0449C16.6901 8.96549 17.3167 9.19321 17.8047 9.6154C18.2927 10.0376 18.6078 10.6248 18.6904 11.2648C18.7269 11.6207 18.6888 11.9805 18.5771 12.3205C18.4655 12.6602 18.2832 12.9726 18.043 13.2375C17.8025 13.5024 17.5082 13.7145 17.1807 13.8586C16.8533 14.0025 16.4992 14.0762 16.1416 14.0744H15.6318V17.0461C15.6318 17.3165 15.5242 17.5765 15.333 17.7677C15.1419 17.9587 14.8825 18.0655 14.6123 18.0656H2.88574C2.61551 18.0656 2.3562 17.9587 2.16504 17.7677C1.97381 17.5765 1.86621 17.3165 1.86621 17.0461V12.5441H3.39551C3.60932 12.543 3.82067 12.4972 4.01562 12.4093C4.21057 12.3215 4.38481 12.1937 4.52734 12.0343C4.67236 11.8768 4.78306 11.6903 4.85156 11.4875C4.91994 11.2847 4.94464 11.0696 4.9248 10.8566C4.86974 10.4682 4.67395 10.1134 4.37402 9.86052C4.074 9.60752 3.69112 9.47412 3.29883 9.48552H1.86621V5.32048C1.86621 5.05005 1.97381 4.79002 2.16504 4.5988C2.35621 4.40775 2.61546 4.30001 2.88574 4.29997H6.45508C6.46521 3.94972 6.54709 3.6053 6.69629 3.28825C6.84553 2.97116 7.05877 2.68826 7.32227 2.4572C7.58592 2.22608 7.89447 2.05098 8.22852 1.9445C8.5625 1.83805 8.91497 1.80219 9.26367 1.83806ZM9.16211 2.85759C8.94899 2.83775 8.73406 2.86336 8.53125 2.93181C8.32846 3.00028 8.14187 3.11011 7.98438 3.25505C7.82509 3.39751 7.69719 3.57195 7.60938 3.76677C7.52159 3.96166 7.47579 4.17314 7.47461 4.38688V5.32048H2.88574V8.46599H3.29883C3.94412 8.45566 4.57052 8.68339 5.05859 9.10564C5.54663 9.52788 5.86269 10.115 5.94531 10.755C5.98178 11.1109 5.94269 11.4708 5.83105 11.8107C5.71942 12.1505 5.53719 12.4628 5.29688 12.7277C5.05645 12.9927 4.76304 13.2048 4.43555 13.3488C4.10801 13.4928 3.75332 13.5655 3.39551 13.5636H2.88574V17.0461H14.6123V13.0539H16.1416C16.3554 13.0527 16.5668 13.0069 16.7617 12.9191C16.9566 12.8313 17.131 12.7034 17.2734 12.5441C17.4183 12.3867 17.5292 12.2009 17.5977 11.9982C17.6662 11.7953 17.6907 11.5796 17.6709 11.3664C17.6158 10.978 17.42 10.6232 17.1201 10.3703C16.8202 10.1173 16.4371 9.98395 16.0449 9.99528H14.6123V5.32048H10.5332V4.48356C10.5445 4.09152 10.411 3.70924 10.1582 3.40935C9.90524 3.10937 9.55063 2.91263 9.16211 2.85759ZM9.07715 13.8205C9.37661 13.8206 9.61914 14.0639 9.61914 14.3634C9.61888 14.6627 9.37644 14.9053 9.07715 14.9054C8.77771 14.9054 8.53444 14.6628 8.53418 14.3634C8.53418 14.0638 8.77754 13.8205 9.07715 13.8205ZM9.07715 7.31071C9.37645 7.31088 9.61888 7.55343 9.61914 7.85271V12.1925C9.61914 12.492 9.37661 12.7353 9.07715 12.7355C8.77771 12.7355 8.53444 12.4929 8.53418 12.1935V7.85368C8.53418 7.55408 8.77754 7.31071 9.07715 7.31071Z" fill="#6D6D6D"/>
</g>
<defs>
<clipPath id="clip0_187_297">
<rect width="20" height="20" fill="white"/>
</clipPath>
</defs>
</svg>
