<svg width="20" height="20" viewBox="0 0 20 20" fill="none" xmlns="http://www.w3.org/2000/svg">
<path d="M10.0001 18.2199C12.1802 18.2199 14.2711 17.3538 15.8127 15.8122C17.3543 14.2706 18.2204 12.1797 18.2204 9.99958C18.2204 7.81943 17.3543 5.72857 15.8127 4.18696C14.2711 2.64536 12.1802 1.7793 10.0001 1.7793C7.81992 1.7793 5.72905 2.64536 4.18745 4.18696C2.64585 5.72857 1.77979 7.81943 1.77979 9.99958C1.77979 12.1797 2.64585 14.2706 4.18745 15.8122C5.72905 17.3538 7.81992 18.2199 10.0001 18.2199Z" stroke="#6D6D6D" stroke-width="1.2" stroke-linecap="round" stroke-linejoin="round"/>
<path d="M12.1525 7.7505C12.0368 7.42119 11.8214 7.13604 11.5364 6.93459C11.2513 6.73314 10.9106 6.62537 10.5616 6.62622H9.25644C8.88485 6.62561 8.52616 6.7625 8.24946 7.01053C7.97276 7.25856 7.7976 7.6002 7.75772 7.96965C7.71784 8.3391 7.81605 8.71024 8.03345 9.01161C8.25085 9.31298 8.57205 9.52326 8.93522 9.60196L10.922 10.037C11.3282 10.1261 11.6871 10.3621 11.93 10.6997C12.1728 11.0373 12.2824 11.4527 12.2377 11.8661C12.193 12.2796 11.9972 12.6619 11.6879 12.9399C11.3785 13.2178 10.9774 13.3716 10.5616 13.3719H9.43855C9.08934 13.3727 8.74855 13.2647 8.46346 13.063C8.17838 12.8613 7.96314 12.5759 7.84761 12.2464M10.0001 6.62622V4.94043M10.0001 15.0577V13.3706" stroke="#6D6D6D" stroke-width="1.2" stroke-linecap="round" stroke-linejoin="round"/>
</svg>
