<svg width="15" height="15" viewBox="0 0 15 15" fill="none" xmlns="http://www.w3.org/2000/svg">
<path d="M7.5 0C10.1884 0 12.5753 1.46088 13.8467 3.82617V1.73047C13.8467 1.41202 14.1045 1.15357 14.4229 1.15332C14.7415 1.15332 15 1.41186 15 1.73047V5.76953H10.9619C10.6434 5.76953 10.3849 5.51091 10.3848 5.19238C10.3848 4.87375 10.6433 4.61523 10.9619 4.61523H12.9473C11.921 2.44533 9.87255 1.15332 7.5 1.15332C3.98068 1.15333 1.15332 3.98068 1.15332 7.5C1.15334 11.0193 3.9807 13.8467 7.5 13.8467C9.79226 13.8467 11.8872 12.6145 13.0117 10.6523C13.1665 10.3824 13.4978 10.2555 13.7822 10.3818C14.0716 10.5105 14.202 10.8517 14.0488 11.1289C12.744 13.4903 10.248 15 7.5 15C3.34607 15 2.44151e-05 11.6539 0 7.5C0 3.34605 3.34605 7.96537e-06 7.5 0Z" fill="#848484"/>
</svg>
