<svg width="24" height="24" viewBox="0 0 24 24" fill="none" xmlns="http://www.w3.org/2000/svg">
<path d="M10.2 5.39999C10.2 5.24086 10.1368 5.08825 10.0243 4.97572C9.91174 4.8632 9.75913 4.79999 9.6 4.79999H7.2L6.936 4.80719C5.6875 4.87565 4.51498 5.42859 3.66795 6.34836C2.82092 7.26814 2.36622 8.48213 2.40062 9.73204C2.43502 10.9819 2.95579 12.1691 3.85213 13.0409C4.74847 13.9127 5.94962 14.4003 7.2 14.4H9.6L9.708 14.3904C9.85554 14.3637 9.98773 14.2827 10.0785 14.1634C10.1693 14.0441 10.2122 13.8951 10.1987 13.7458C10.1851 13.5965 10.1161 13.4576 10.0053 13.3566C9.89454 13.2556 9.74994 13.1997 9.6 13.2H7.2L6.9636 13.1928C6.02961 13.1337 5.15534 12.7132 4.52612 12.0204C3.89691 11.3276 3.56219 10.4171 3.59294 9.48172C3.62368 8.54637 4.01746 7.65974 4.6908 7.00979C5.36415 6.35984 6.26414 5.99765 7.2 5.99999H9.6L9.708 5.99039C9.84614 5.96511 9.97103 5.89218 10.0609 5.7843C10.1508 5.67642 10.2 5.54042 10.2 5.39999ZM21.6 9.59999C21.6 8.32695 21.0943 7.10605 20.1941 6.20588C19.2939 5.3057 18.073 4.79999 16.8 4.79999H14.4L14.292 4.80959C14.1445 4.8363 14.0123 4.91728 13.9215 5.03659C13.8307 5.1559 13.7878 5.30488 13.8013 5.4542C13.8149 5.60352 13.8839 5.74236 13.9947 5.84338C14.1055 5.94439 14.2501 6.00026 14.4 5.99999H16.8L17.0364 6.00719C17.6391 6.04674 18.2221 6.23728 18.7318 6.56126C19.2415 6.88524 19.6615 7.33225 19.9531 7.86113C20.2448 8.39001 20.3986 8.98377 20.4006 9.58772C20.4026 10.1917 20.2526 10.7864 19.9644 11.3172C20.3372 11.4748 20.6904 11.6632 21.024 11.8824C21.4025 11.1812 21.6004 10.3968 21.6 9.59999ZM16.8 8.99999H7.2L7.092 9.00959C6.94446 9.0363 6.81227 9.11728 6.72146 9.23659C6.63065 9.3559 6.5878 9.50488 6.60135 9.6542C6.6149 9.80352 6.68386 9.94236 6.79466 10.0434C6.90546 10.1444 7.05007 10.2003 7.2 10.2H16.8L16.908 10.1904C17.0555 10.1637 17.1877 10.0827 17.2785 9.96339C17.3693 9.84408 17.4122 9.6951 17.3987 9.54577C17.3851 9.39645 17.3161 9.25761 17.2053 9.1566C17.0945 9.05558 16.9499 8.99971 16.8 8.99999ZM22.8 17.4C22.8 18.8322 22.2311 20.2057 21.2184 21.2184C20.2057 22.2311 18.8322 22.8 17.4 22.8C15.9678 22.8 14.5943 22.2311 13.5816 21.2184C12.5689 20.2057 12 18.8322 12 17.4C12 15.9678 12.5689 14.5943 13.5816 13.5816C14.5943 12.5689 15.9678 12 17.4 12C18.8322 12 20.2057 12.5689 21.2184 13.5816C22.2311 14.5943 22.8 15.9678 22.8 17.4ZM18 15C18 14.8409 17.9368 14.6882 17.8243 14.5757C17.7117 14.4632 17.5591 14.4 17.4 14.4C17.2409 14.4 17.0883 14.4632 16.9757 14.5757C16.8632 14.6882 16.8 14.8409 16.8 15V16.8H15C14.8409 16.8 14.6883 16.8632 14.5757 16.9757C14.4632 17.0882 14.4 17.2409 14.4 17.4C14.4 17.5591 14.4632 17.7117 14.5757 17.8243C14.6883 17.9368 14.8409 18 15 18H16.8V19.8C16.8 19.9591 16.8632 20.1117 16.9757 20.2243C17.0883 20.3368 17.2409 20.4 17.4 20.4C17.5591 20.4 17.7117 20.3368 17.8243 20.2243C17.9368 20.1117 18 19.9591 18 19.8V18H19.8C19.9591 18 20.1117 17.9368 20.2243 17.8243C20.3368 17.7117 20.4 17.5591 20.4 17.4C20.4 17.2409 20.3368 17.0882 20.2243 16.9757C20.1117 16.8632 19.9591 16.8 19.8 16.8H18V15Z" fill="white"/>
</svg>
