<svg width="20" height="20" viewBox="0 0 20 20" fill="none" xmlns="http://www.w3.org/2000/svg">
<g clip-path="url(#clip0_187_313)">
<path d="M16.0447 8.97578H15.6317V5.32027C15.6317 5.04984 15.5243 4.79048 15.3331 4.59926C15.1418 4.40803 14.8825 4.30061 14.612 4.30061H11.553C11.5208 3.68687 11.2739 3.10399 10.8554 2.65386C10.437 2.20372 9.87365 1.91498 9.26389 1.83811C8.91513 1.8022 8.5627 1.83863 8.22866 1.94511C7.89461 2.05158 7.58611 2.22583 7.32246 2.45694C7.05881 2.68805 6.84567 2.97107 6.69636 3.2883C6.54705 3.60553 6.46479 3.95014 6.45471 4.30061H2.88588C2.61545 4.30061 2.35609 4.40803 2.16486 4.59926C1.97364 4.79048 1.86621 5.04984 1.86621 5.32027V9.48561H3.29884C3.69114 9.47421 4.07388 9.60778 4.3739 9.86078C4.67393 10.1138 4.87021 10.4685 4.92521 10.8571C4.94506 11.0703 4.91992 11.2853 4.85141 11.4881C4.78291 11.691 4.67257 11.8772 4.52754 12.0348C4.385 12.1941 4.21063 12.3219 4.01567 12.4097C3.82072 12.4975 3.60952 12.5435 3.39571 12.5446H1.86621V17.0464C1.86621 17.3169 1.97364 17.5762 2.16486 17.7675C2.35609 17.9587 2.61545 18.0661 2.88588 18.0661H14.612C14.8825 18.0661 15.1418 17.9587 15.3331 17.7675C15.5243 17.5762 15.6317 17.3169 15.6317 17.0464V14.0741H16.1415C16.4994 14.076 16.8535 14.0025 17.1811 13.8584C17.5086 13.7144 17.8022 13.503 18.0426 13.238C18.2831 12.973 18.465 12.6604 18.5767 12.3205C18.6884 11.9805 18.7272 11.6209 18.6907 11.2649C18.6081 10.6249 18.2926 10.0376 17.8045 9.6154C17.3165 9.19315 16.69 8.96545 16.0447 8.97578ZM17.2734 12.5446C17.1308 12.704 16.9565 12.8317 16.7615 12.9195C16.5666 13.0073 16.3554 13.0533 16.1415 13.0544H14.612V17.0464H2.88588V13.5643H3.39571C3.75352 13.5661 4.10772 13.4927 4.43525 13.3486C4.76279 13.2046 5.05634 12.9932 5.29679 12.7282C5.53724 12.4632 5.71922 12.1506 5.83088 11.8106C5.94254 11.4707 5.98138 11.111 5.94488 10.7551C5.86225 10.115 5.54678 9.52781 5.05871 9.10557C4.57063 8.68332 3.94414 8.45562 3.29884 8.46594H2.88588V5.32027H7.47438V4.38728C7.47552 4.17346 7.52149 3.96227 7.6093 3.76731C7.69712 3.57236 7.82484 3.39799 7.98421 3.25545C8.14174 3.11042 8.32797 3.00008 8.53085 2.93158C8.73372 2.86307 8.94872 2.83793 9.16192 2.85778C9.55051 2.91278 9.9052 3.10906 10.1582 3.40908C10.4112 3.70911 10.5448 4.09185 10.5334 4.48415V5.32027H14.612V9.99544H16.0447C16.437 9.98405 16.8197 10.1176 17.1197 10.3706C17.4198 10.6236 17.616 10.9783 17.671 11.3669C17.6909 11.5801 17.6657 11.7951 17.5972 11.998C17.5287 12.2008 17.4184 12.3871 17.2734 12.5446Z" fill="#6D6D6D"/>
</g>
<defs>
<clipPath id="clip0_187_313">
<rect width="20" height="20" fill="white"/>
</clipPath>
</defs>
</svg>
