<svg width="15" height="17" viewBox="0 0 15 17" fill="none" xmlns="http://www.w3.org/2000/svg">
<path d="M3.93343 2.26664H3.26676C2.33343 2.26664 1.86676 2.26664 1.5101 2.44831C1.19651 2.6081 0.941551 2.86305 0.781764 3.17664C0.600098 3.53331 0.600098 3.99998 0.600098 4.93331V5.59998M3.93343 2.26664H10.6001M3.93343 2.26664V0.599976M0.600098 5.59998V12.9333C0.600098 13.8666 0.600098 14.3333 0.781764 14.69C0.941551 15.0036 1.19651 15.2585 1.5101 15.4183C1.86593 15.6 2.3326 15.6 3.26426 15.6H11.2693C12.2009 15.6 12.6668 15.6 13.0226 15.4183C13.3368 15.2583 13.5918 15.0033 13.7518 14.69C13.9334 14.3333 13.9334 13.8683 13.9334 12.9366V5.59998M0.600098 5.59998H13.9334M10.6001 2.26664H11.2668C12.2001 2.26664 12.6668 2.26664 13.0226 2.44831C13.3368 2.60831 13.5918 2.86248 13.7518 3.17664C13.9334 3.53248 13.9334 3.99914 13.9334 4.93081V5.59998M10.6001 2.26664V0.599976M10.6001 12.2666H10.6018V12.2683H10.6001V12.2666ZM7.26676 12.2666H7.26843V12.2683H7.26676V12.2666ZM3.93343 12.2666H3.9351V12.2683H3.93343V12.2666ZM10.6018 8.93331V8.93498H10.6001V8.93331H10.6018ZM7.26676 8.93331H7.26843V8.93498H7.26676V8.93331ZM3.93343 8.93331H3.9351V8.93498H3.93343V8.93331Z" stroke="#6D6D6D" stroke-width="1.2" stroke-linecap="round" stroke-linejoin="round"/>
</svg>
