<svg width="1440" height="255" viewBox="0 0 1440 255" fill="none" xmlns="http://www.w3.org/2000/svg">
<path d="M643.316 0C656.176 0 666.601 10.425 666.601 23.2842C666.601 30.9917 662.855 37.8239 657.085 42.0615C653.434 45.9246 656.508 52.9389 663.987 55.2881H719.307C732.876 55.2883 743.877 66.2887 743.877 79.8584V232.195C743.877 245.765 732.876 256.766 719.307 256.767H566.969C553.399 256.767 542.398 245.765 542.398 232.195V79.8584C542.399 66.2886 553.399 55.2882 566.969 55.2881H619.675C622.867 53.6018 632.042 47.493 629.461 41.9971C623.741 37.7548 620.033 30.9527 620.033 23.2842C620.033 10.4251 630.457 0.000170812 643.316 0ZM542.399 176.878C544.749 169.397 551.764 166.324 555.627 169.977C559.865 175.745 566.697 179.489 574.403 179.489C587.262 179.489 597.686 169.065 597.687 156.206C597.686 143.347 587.262 132.922 574.403 132.922C566.734 132.922 559.93 136.631 555.688 142.353C550.193 144.929 544.086 135.757 542.399 132.565V176.878ZM743.876 132.565C742.189 135.757 736.082 144.931 730.587 142.353C726.345 136.631 719.542 132.922 711.873 132.922C699.014 132.922 688.589 143.347 688.589 156.206C688.589 169.065 699.014 179.489 711.873 179.489C719.578 179.489 726.409 175.745 730.646 169.979C734.509 166.322 741.526 169.396 743.876 176.878V132.565Z" fill="#281D21"/>
<path d="M1246.81 0C1259.67 0 1270.1 10.425 1270.1 23.2842C1270.1 30.9917 1266.35 37.8239 1260.58 42.0615C1256.93 45.9246 1260 52.9389 1267.48 55.2881H1322.8C1336.37 55.2883 1347.37 66.2887 1347.37 79.8584V132.565C1345.69 135.757 1339.58 144.931 1334.08 142.353C1329.84 136.631 1323.04 132.922 1315.37 132.922C1302.51 132.922 1292.08 143.347 1292.08 156.206C1292.09 169.065 1302.51 179.489 1315.37 179.489C1323.07 179.489 1329.9 175.745 1334.14 169.979C1338 166.322 1345.02 169.396 1347.37 176.878V232.195C1347.37 245.765 1336.37 256.766 1322.8 256.767H1170.46C1156.9 256.767 1145.89 245.765 1145.89 232.195V79.8584C1145.89 66.2886 1156.9 55.2882 1170.46 55.2881H1223.17C1226.36 53.6018 1235.54 47.493 1232.96 41.9971C1227.24 37.7548 1223.53 30.9527 1223.53 23.2842C1223.53 10.4251 1233.95 0.000170812 1246.81 0ZM1145.9 176.878C1148.24 169.397 1155.26 166.324 1159.12 169.977C1163.36 175.745 1170.19 179.489 1177.9 179.489C1190.76 179.489 1201.18 169.065 1201.18 156.206C1201.18 143.347 1190.76 132.922 1177.9 132.922C1170.23 132.922 1163.43 136.631 1159.18 142.353C1153.69 144.929 1147.58 135.757 1145.9 132.565V176.878Z" fill="#281D21"/>
<path d="M1604.14 156.204C1604.14 169.063 1593.71 179.488 1580.86 179.488C1573.15 179.488 1566.32 175.743 1562.08 169.974C1558.22 166.322 1551.2 169.396 1548.85 176.876V232.194C1548.85 245.764 1537.85 256.765 1524.28 256.765H1471.57C1468.38 255.079 1459.21 248.97 1461.79 243.475C1467.51 239.233 1471.22 232.43 1471.22 224.761C1471.22 211.902 1460.79 201.477 1447.93 201.477C1435.07 201.477 1424.65 211.902 1424.65 224.761C1424.65 232.466 1428.39 239.296 1434.16 243.534C1437.82 247.397 1434.74 254.415 1427.26 256.765H1371.94C1358.37 256.765 1347.37 245.764 1347.37 232.194V79.8564C1347.37 66.2866 1358.37 55.2861 1371.94 55.2861H1524.28C1537.85 55.2862 1548.85 66.2867 1548.85 79.8564V132.563C1550.54 135.756 1556.65 144.929 1562.14 142.351C1566.38 136.63 1573.19 132.921 1580.86 132.921C1593.71 132.921 1604.14 143.345 1604.14 156.204ZM1427.26 55.2871C1434.74 57.6369 1437.82 64.6542 1434.16 68.5166C1428.39 72.7545 1424.65 79.5847 1424.65 87.29C1424.65 100.149 1435.07 110.574 1447.93 110.574C1460.79 110.574 1471.22 100.149 1471.22 87.29C1471.22 79.6206 1467.51 72.8183 1461.79 68.5762C1459.21 63.081 1468.38 56.9736 1471.57 55.2871H1427.26Z" fill="#281D21"/>
<path d="M39.4629 0C26.6039 0.000263913 16.1787 10.4252 16.1787 23.2842C16.1788 30.9908 19.9238 37.8228 25.6924 42.0605C29.3454 45.9234 26.2716 52.9388 18.791 55.2881H-36.5273C-50.097 55.2883 -61.0976 66.2887 -61.0977 79.8584V232.195C-61.0977 245.765 -50.0971 256.766 -36.5273 256.767H115.811C129.38 256.767 140.381 245.765 140.381 232.195V79.8584C140.381 66.2886 129.38 55.2882 115.811 55.2881H63.1035C59.9113 53.6014 50.7381 47.4932 53.3164 41.998C59.0375 37.7558 62.746 30.9535 62.7461 23.2842C62.7461 10.4251 52.322 0.000154036 39.4629 0ZM140.38 176.878C138.03 169.396 131.013 166.322 127.15 169.979C122.912 175.746 116.082 179.489 108.376 179.489C95.5169 179.489 85.093 169.065 85.0928 156.206C85.0928 143.347 95.5168 132.922 108.376 132.922C116.046 132.922 122.849 136.631 127.091 142.353C132.586 144.931 138.693 135.757 140.38 132.565V176.878ZM-61.0967 132.565C-59.4102 135.757 -53.3028 144.93 -47.8076 142.353C-43.5654 136.631 -36.7624 132.922 -29.0928 132.922C-16.2336 132.922 -5.80957 143.347 -5.80957 156.206C-5.80979 169.065 -16.2337 179.489 -29.0928 179.489C-36.7983 179.489 -43.6293 175.746 -47.8672 169.979C-51.7296 166.322 -58.7469 169.396 -61.0967 176.878V132.565Z" fill="#281D21"/>
<path d="M598.156 156.206C598.156 169.065 587.731 179.49 574.872 179.49C567.166 179.49 560.334 175.746 556.097 169.978C552.234 166.323 545.218 169.397 542.868 176.878V232.196C542.868 245.766 531.867 256.766 518.298 256.767H465.593C462.401 255.08 453.226 248.971 455.807 243.476C461.527 239.233 465.235 232.431 465.235 224.762C465.235 211.903 454.81 201.479 441.951 201.479C429.092 201.479 418.668 211.903 418.668 224.762C418.668 232.469 422.413 239.301 428.182 243.539C431.834 247.402 428.76 254.417 421.28 256.767H365.962C352.392 256.767 341.392 245.766 341.392 232.196V79.8574C341.392 66.2877 352.392 55.2871 365.962 55.2871H421.28C428.761 57.6364 431.834 64.6517 428.182 68.5146C422.413 72.7524 418.668 79.585 418.668 87.292C418.668 100.151 429.092 110.575 441.951 110.575C454.81 110.575 465.235 100.151 465.235 87.292C465.235 79.6231 461.527 72.8205 455.807 68.5781C453.226 63.0822 462.401 56.9734 465.593 55.2871H518.298C531.867 55.2874 542.868 66.2879 542.868 79.8574V132.564C544.528 135.707 550.474 144.648 555.902 142.463L556.161 142.35C560.403 136.63 567.204 132.923 574.872 132.923C587.731 132.923 598.156 143.347 598.156 156.206Z" fill="#281D21"/>
<path d="M1201.65 156.206C1201.65 169.065 1191.23 179.49 1178.37 179.49C1170.66 179.49 1163.83 175.746 1159.59 169.978C1155.73 166.323 1148.71 169.397 1146.36 176.878V232.196C1146.36 245.766 1135.36 256.766 1121.79 256.767H1069.09C1065.9 255.08 1056.72 248.971 1059.3 243.476C1065.02 239.233 1068.73 232.431 1068.73 224.762C1068.73 211.903 1058.31 201.479 1045.45 201.479C1032.59 201.479 1022.16 211.903 1022.16 224.762C1022.16 232.469 1025.91 239.301 1031.68 243.539C1035.33 247.402 1032.26 254.417 1024.78 256.767H969.458C955.888 256.767 944.888 245.766 944.888 232.196V79.8574C944.888 66.2877 955.888 55.2871 969.458 55.2871H1024.78C1032.26 57.6364 1035.33 64.6517 1031.68 68.5146C1025.91 72.7524 1022.16 79.585 1022.16 87.292C1022.16 100.151 1032.59 110.575 1045.45 110.575C1058.31 110.575 1068.73 100.151 1068.73 87.292C1068.73 79.6231 1065.02 72.8205 1059.3 68.5781C1056.72 63.0822 1065.9 56.9734 1069.09 55.2871H1121.79C1135.36 55.2874 1146.36 66.2879 1146.36 79.8574V132.564C1148.02 135.707 1153.97 144.648 1159.4 142.463L1159.66 142.35C1163.9 136.63 1170.7 132.923 1178.37 132.923C1191.23 132.923 1201.65 143.347 1201.65 156.206Z" fill="#281D21"/>
<path d="M688.121 155.847C688.121 142.988 698.546 132.563 711.405 132.562C719.11 132.563 725.941 136.307 730.179 142.073C734.041 145.73 741.059 142.657 743.409 135.175V79.8584C743.409 66.2888 754.41 55.2883 767.979 55.2881H820.684C823.876 56.9745 833.051 63.0833 830.471 68.5791C824.75 72.8214 821.042 79.6241 821.042 87.293C821.042 100.152 831.467 110.576 844.326 110.576C857.185 110.576 867.609 100.152 867.609 87.293C867.609 79.5865 863.865 72.7545 858.097 68.5166C854.442 64.6539 857.516 57.6376 864.997 55.2881H920.316C933.886 55.2882 944.887 66.2887 944.888 79.8584V232.196C944.887 245.766 933.886 256.767 920.316 256.767H864.997C857.517 254.417 854.443 247.402 858.096 243.539C863.865 239.301 867.609 232.469 867.609 224.762C867.609 211.903 857.185 201.479 844.326 201.479C831.467 201.479 821.042 211.903 821.042 224.762C821.042 232.431 824.75 239.233 830.471 243.476C833.051 248.971 823.875 255.08 820.684 256.767H767.979C754.41 256.766 743.41 245.766 743.409 232.196V179.487C741.722 176.295 735.614 167.121 730.118 169.701C725.876 175.421 719.074 179.13 711.405 179.13C698.546 179.13 688.121 168.706 688.121 155.847Z" fill="#281D21"/>
<path d="M85.0918 155.847C85.0921 142.988 95.517 132.564 108.376 132.563C116.081 132.564 122.912 136.307 127.149 142.073C131.012 145.73 138.03 142.657 140.38 135.175V79.8584C140.38 66.2888 151.381 55.2883 164.95 55.2881H217.654C220.846 56.9745 230.022 63.0833 227.441 68.5791C221.721 72.8214 218.013 79.6241 218.013 87.293C218.013 100.152 228.438 110.576 241.297 110.576C254.156 110.576 264.58 100.152 264.58 87.293C264.58 79.5865 260.836 72.7545 255.067 68.5166C251.413 64.6539 254.487 57.6376 261.968 55.2881H317.287C330.857 55.2882 341.858 66.2887 341.858 79.8584V232.196C341.858 245.766 330.857 256.767 317.287 256.767H261.968C254.487 254.417 251.414 247.402 255.066 243.539C260.835 239.301 264.58 232.469 264.58 224.762C264.58 211.903 254.156 201.479 241.297 201.479C228.438 201.479 218.013 211.903 218.013 224.762C218.013 232.431 221.721 239.233 227.441 243.476C230.021 248.971 220.846 255.08 217.654 256.767H164.95C151.381 256.766 140.38 245.766 140.38 232.196V179.487C138.693 176.295 132.584 167.121 127.089 169.701C122.847 175.421 116.045 179.13 108.376 179.13C95.5171 179.13 85.0921 168.706 85.0918 155.847Z" fill="#281D21"/>
<rect x="-220.174" y="128.383" width="1811.32" height="263.303" fill="#281D21"/>
</svg>
