<svg width="1440" height="309" viewBox="0 0 1440 309" fill="none" xmlns="http://www.w3.org/2000/svg">
<line x1="-58.7676" y1="143.492" x2="1440" y2="143.492" stroke="url(#paint0_linear_409_565)"/>
<line x1="-58.7676" y1="188.305" x2="1440" y2="188.305" stroke="url(#paint1_linear_409_565)"/>
<line x1="-58.7676" y1="233.305" x2="1440" y2="233.305" stroke="url(#paint2_linear_409_565)"/>
<line x1="-58.7676" y1="98.6797" x2="1440" y2="98.6797" stroke="url(#paint3_linear_409_565)"/>
<line x1="380.887" y1="-2.18557e-08" x2="380.887" y2="308.429" stroke="url(#paint4_linear_409_565)"/>
<line x1="424.883" y1="-2.18557e-08" x2="424.883" y2="308.429" stroke="url(#paint5_linear_409_565)"/>
<line x1="469.695" y1="-2.18557e-08" x2="469.695" y2="308.429" stroke="url(#paint6_linear_409_565)"/>
<line x1="514.508" y1="-2.18557e-08" x2="514.508" y2="308.429" stroke="url(#paint7_linear_409_565)"/>
<line x1="559.32" y1="-2.18557e-08" x2="559.32" y2="308.429" stroke="url(#paint8_linear_409_565)"/>
<line x1="604.133" y1="-2.18557e-08" x2="604.133" y2="308.429" stroke="url(#paint9_linear_409_565)"/>
<line x1="648.945" y1="-2.18557e-08" x2="648.945" y2="308.429" stroke="url(#paint10_linear_409_565)"/>
<line x1="693.758" y1="-2.18557e-08" x2="693.758" y2="308.429" stroke="url(#paint11_linear_409_565)"/>
<line x1="738.57" y1="-2.18557e-08" x2="738.57" y2="308.429" stroke="url(#paint12_linear_409_565)"/>
<line x1="783.383" y1="-2.18557e-08" x2="783.383" y2="308.429" stroke="url(#paint13_linear_409_565)"/>
<line x1="828.195" y1="-2.18557e-08" x2="828.195" y2="308.429" stroke="url(#paint14_linear_409_565)"/>
<line x1="873.008" y1="-2.18557e-08" x2="873.008" y2="308.429" stroke="url(#paint15_linear_409_565)"/>
<line x1="917.82" y1="-2.18557e-08" x2="917.82" y2="308.429" stroke="url(#paint16_linear_409_565)"/>
<line x1="962.633" y1="-2.18557e-08" x2="962.633" y2="308.429" stroke="url(#paint17_linear_409_565)"/>
<line x1="1007.45" y1="-2.18557e-08" x2="1007.45" y2="308.429" stroke="url(#paint18_linear_409_565)"/>
<line x1="1052.26" y1="-2.18557e-08" x2="1052.26" y2="308.429" stroke="url(#paint19_linear_409_565)"/>
<line x1="1097.07" y1="-2.18557e-08" x2="1097.07" y2="308.429" stroke="url(#paint20_linear_409_565)"/>
<line x1="1141.88" y1="-2.18557e-08" x2="1141.88" y2="308.429" stroke="url(#paint21_linear_409_565)"/>
<line x1="1186.7" y1="-2.18557e-08" x2="1186.7" y2="308.429" stroke="url(#paint22_linear_409_565)"/>
<line x1="1231.51" y1="-2.18557e-08" x2="1231.51" y2="308.429" stroke="url(#paint23_linear_409_565)"/>
<line x1="247.266" y1="-2.18557e-08" x2="247.266" y2="308.429" stroke="url(#paint24_linear_409_565)"/>
<line x1="292.078" y1="-2.18557e-08" x2="292.078" y2="308.429" stroke="url(#paint25_linear_409_565)"/>
<line x1="336.891" y1="-2.18557e-08" x2="336.891" y2="308.429" stroke="url(#paint26_linear_409_565)"/>
<path d="M437.494 121.627C437.494 124.487 435.175 126.806 432.315 126.806C430.604 126.806 429.086 125.975 428.144 124.695C427.285 123.875 425.721 124.558 425.197 126.225V140.328C425.197 142.352 423.556 143.992 421.532 143.992H408.011C407.301 143.617 405.261 142.258 405.835 141.036H405.833C407.106 140.093 407.932 138.58 407.932 136.874C407.932 134.014 405.613 131.695 402.753 131.695C399.893 131.696 397.575 134.014 397.575 136.874C397.575 138.584 398.404 140.101 399.683 141.044C400.506 141.902 399.824 143.468 398.155 143.992H384.051C382.027 143.992 380.387 142.352 380.387 140.328V102.845C380.387 100.821 382.027 99.18 384.051 99.1797H398.155C399.824 99.7036 400.506 101.27 399.683 102.128C398.404 103.071 397.575 104.587 397.575 106.298C397.575 109.158 399.893 111.476 402.753 111.477C405.613 111.477 407.932 109.158 407.932 106.298C407.932 104.592 407.106 103.079 405.833 102.136H405.835C405.261 100.913 407.301 99.5549 408.011 99.1797H421.532C423.556 99.1797 425.197 100.821 425.197 102.845V116.368C425.572 117.078 426.931 119.119 428.153 118.545V118.547C429.097 117.274 430.609 116.448 432.315 116.448C435.175 116.448 437.494 118.767 437.494 121.627Z" fill="#F5F5F5"/>
<path d="M1173.9 211.252C1173.9 214.112 1176.22 216.431 1179.08 216.431C1180.79 216.431 1182.31 215.6 1183.25 214.32C1184.11 213.5 1185.67 214.183 1186.2 215.85V229.953C1186.2 231.977 1187.84 233.617 1189.86 233.617H1203.38C1204.09 233.242 1206.13 231.883 1205.56 230.661H1205.56C1204.29 229.718 1203.46 228.205 1203.46 226.499C1203.46 223.639 1205.78 221.32 1208.64 221.32C1211.5 221.321 1213.82 223.639 1213.82 226.499C1213.82 228.209 1212.99 229.726 1211.71 230.669C1210.89 231.527 1211.57 233.093 1213.24 233.617H1227.34C1229.37 233.617 1231.01 231.977 1231.01 229.953V192.47C1231.01 190.446 1229.37 188.805 1227.34 188.805H1213.24C1211.57 189.329 1210.89 190.895 1211.71 191.753C1212.99 192.696 1213.82 194.212 1213.82 195.923C1213.82 198.783 1211.5 201.101 1208.64 201.102C1205.78 201.102 1203.46 198.783 1203.46 195.923C1203.46 194.217 1204.29 192.704 1205.56 191.761H1205.56C1206.13 190.538 1204.09 189.18 1203.38 188.805H1189.86C1187.84 188.805 1186.2 190.446 1186.2 192.47V205.993C1185.82 206.703 1184.46 208.744 1183.24 208.17V208.172C1182.3 206.899 1180.79 206.073 1179.08 206.073C1176.22 206.073 1173.9 208.392 1173.9 211.252Z" fill="#FAFAFA"/>
<path d="M446.749 201.1C443.889 201.099 441.569 198.781 441.569 195.921C441.569 194.208 442.402 192.69 443.683 191.747C444.499 190.889 443.817 189.326 442.151 188.803H428.047C426.023 188.803 424.383 187.162 424.383 185.138V171.616C424.758 170.906 426.116 168.867 427.338 169.438C428.281 170.712 429.795 171.538 431.502 171.538C434.362 171.538 436.68 169.219 436.681 166.359C436.681 163.5 434.362 161.181 431.502 161.181C429.792 161.181 428.274 162.01 427.331 163.288C426.473 164.111 424.907 163.429 424.383 161.761V147.656C424.383 145.633 426.023 143.992 428.047 143.992H465.53C467.554 143.992 469.195 145.633 469.195 147.656V161.761C468.671 163.429 467.105 164.111 466.247 163.288C465.304 162.01 463.787 161.181 462.076 161.181C459.216 161.181 456.897 163.5 456.897 166.359C456.898 169.219 459.216 171.538 462.076 171.538C463.783 171.538 465.297 170.712 466.24 169.438C467.462 168.867 468.82 170.907 469.195 171.616V185.138C469.195 187.162 467.554 188.803 465.53 188.803H452.007C451.297 189.178 449.257 190.537 449.83 191.759C451.102 192.702 451.928 194.215 451.928 195.921C451.928 198.781 449.609 201.099 446.749 201.1Z" fill="#F5F5F5"/>
<path d="M1074.12 155.816C1071.26 155.816 1068.94 153.497 1068.94 150.638C1068.94 148.925 1069.78 147.407 1071.06 146.464C1071.87 145.605 1071.19 144.043 1069.53 143.52H1055.42C1053.4 143.519 1051.76 141.878 1051.76 139.854V126.333C1052.13 125.623 1053.49 123.584 1054.71 124.155C1055.66 125.429 1057.17 126.255 1058.88 126.255C1061.74 126.255 1064.06 123.936 1064.06 121.076C1064.06 118.216 1061.74 115.898 1058.88 115.897C1057.17 115.897 1055.65 116.727 1054.71 118.005C1053.85 118.828 1052.28 118.146 1051.76 116.478V102.373C1051.76 100.349 1053.4 98.7092 1055.42 98.709H1092.91C1094.93 98.709 1096.57 100.349 1096.57 102.373V116.478C1096.05 118.146 1094.48 118.828 1093.62 118.005C1092.68 116.727 1091.16 115.897 1089.45 115.897C1086.59 115.898 1084.27 118.216 1084.27 121.076C1084.27 123.936 1086.59 126.255 1089.45 126.255C1091.16 126.255 1092.67 125.429 1093.62 124.155C1094.84 123.583 1096.2 125.623 1096.57 126.333V139.854C1096.57 141.878 1094.93 143.52 1092.91 143.52H1079.38C1078.67 143.895 1076.63 145.254 1077.21 146.476C1078.48 147.419 1079.3 148.932 1079.3 150.638C1079.3 153.497 1076.98 155.816 1074.12 155.816Z" fill="#F5F5F5"/>
<path d="M984.499 42.0723C981.639 42.0725 979.32 44.3912 979.32 47.251C979.32 48.9634 980.152 50.4821 981.433 51.4248C982.249 52.2833 981.567 53.8459 979.901 54.3691H965.797C963.773 54.3693 962.133 56.0103 962.133 58.0342V71.5557C962.508 72.2654 963.866 74.3052 965.088 73.7334C966.031 72.46 967.545 71.6338 969.252 71.6338C972.112 71.6341 974.43 73.9528 974.431 76.8125C974.431 79.6723 972.112 81.9909 969.252 81.9912C967.542 81.9912 966.024 81.1621 965.081 79.8838C964.223 79.0611 962.657 79.7431 962.133 81.4111V95.5156C962.133 97.5392 963.773 99.1795 965.797 99.1797H1003.28C1005.3 99.1797 1006.95 97.5393 1006.95 95.5156V81.4111C1006.42 79.7431 1004.85 79.0611 1004 79.8838C1003.05 81.1621 1001.54 81.9912 999.826 81.9912C996.966 81.991 994.647 79.6724 994.647 76.8125C994.648 73.9528 996.966 71.634 999.826 71.6338C1001.53 71.6338 1003.05 72.46 1003.99 73.7334C1005.21 74.3052 1006.57 72.2653 1006.95 71.5557V58.0342C1006.95 56.0102 1005.3 54.3691 1003.28 54.3691H989.757C989.047 53.9938 987.007 52.635 987.58 51.4131C988.852 50.4696 989.678 48.9565 989.678 47.251C989.678 44.3912 987.359 42.0725 984.499 42.0723Z" fill="#F9F9F9"/>
<path d="M279.283 235.27C279.283 232.409 281.602 230.091 284.462 230.091C286.173 230.091 287.691 230.921 288.634 232.201C289.492 233.021 291.057 232.339 291.58 230.672V216.568C291.58 214.545 293.221 212.904 295.245 212.904H308.767C309.477 213.28 311.516 214.638 310.942 215.86H310.944C309.671 216.804 308.846 218.316 308.846 220.022C308.846 222.883 311.164 225.201 314.024 225.201C316.884 225.201 319.202 222.882 319.202 220.022C319.202 218.312 318.373 216.796 317.095 215.853C316.272 214.995 316.954 213.428 318.622 212.904H332.727C334.75 212.905 336.39 214.545 336.391 216.568V254.052C336.391 256.076 334.75 257.716 332.727 257.717H318.622C316.954 257.193 316.272 255.626 317.095 254.769C318.373 253.826 319.202 252.309 319.202 250.599C319.202 247.739 316.884 245.42 314.024 245.42C311.164 245.42 308.846 247.738 308.846 250.599C308.846 252.305 309.671 253.817 310.944 254.761H310.942C311.517 255.983 309.477 257.342 308.767 257.717H295.245C293.221 257.717 291.58 256.076 291.58 254.052V240.528C291.205 239.818 289.846 237.778 288.624 238.352V238.35C287.681 239.623 286.168 240.448 284.462 240.448C281.602 240.448 279.283 238.13 279.283 235.27Z" fill="#FAFAFA"/>
<defs>
<linearGradient id="paint0_linear_409_565" x1="-58.7676" y1="144.492" x2="1440" y2="144.492" gradientUnits="userSpaceOnUse">
<stop stop-color="white"/>
<stop offset="0.5" stop-color="#F5F5F5"/>
<stop offset="1" stop-color="white"/>
</linearGradient>
<linearGradient id="paint1_linear_409_565" x1="-58.7676" y1="189.305" x2="1440" y2="189.305" gradientUnits="userSpaceOnUse">
<stop stop-color="white"/>
<stop offset="0.5" stop-color="#F5F5F5"/>
<stop offset="1" stop-color="white"/>
</linearGradient>
<linearGradient id="paint2_linear_409_565" x1="-58.7676" y1="234.305" x2="1440" y2="234.305" gradientUnits="userSpaceOnUse">
<stop stop-color="white"/>
<stop offset="0.5" stop-color="#F5F5F5"/>
<stop offset="1" stop-color="white"/>
</linearGradient>
<linearGradient id="paint3_linear_409_565" x1="-58.7676" y1="99.6797" x2="1440" y2="99.6797" gradientUnits="userSpaceOnUse">
<stop stop-color="white"/>
<stop offset="0.5" stop-color="#F5F5F5"/>
<stop offset="1" stop-color="white"/>
</linearGradient>
<linearGradient id="paint4_linear_409_565" x1="379.887" y1="2.18557e-08" x2="379.887" y2="308.429" gradientUnits="userSpaceOnUse">
<stop stop-color="white"/>
<stop offset="0.5" stop-color="#F5F5F5"/>
<stop offset="1" stop-color="white"/>
</linearGradient>
<linearGradient id="paint5_linear_409_565" x1="423.883" y1="2.18557e-08" x2="423.883" y2="308.429" gradientUnits="userSpaceOnUse">
<stop stop-color="white"/>
<stop offset="0.5" stop-color="#F5F5F5"/>
<stop offset="1" stop-color="white"/>
</linearGradient>
<linearGradient id="paint6_linear_409_565" x1="468.695" y1="2.18557e-08" x2="468.695" y2="308.429" gradientUnits="userSpaceOnUse">
<stop stop-color="white"/>
<stop offset="0.5" stop-color="#F5F5F5"/>
<stop offset="1" stop-color="white"/>
</linearGradient>
<linearGradient id="paint7_linear_409_565" x1="513.508" y1="2.18557e-08" x2="513.508" y2="308.429" gradientUnits="userSpaceOnUse">
<stop stop-color="white"/>
<stop offset="0.5" stop-color="#F5F5F5"/>
<stop offset="1" stop-color="white"/>
</linearGradient>
<linearGradient id="paint8_linear_409_565" x1="558.32" y1="2.18557e-08" x2="558.32" y2="308.429" gradientUnits="userSpaceOnUse">
<stop stop-color="white"/>
<stop offset="0.5" stop-color="#F5F5F5"/>
<stop offset="1" stop-color="white"/>
</linearGradient>
<linearGradient id="paint9_linear_409_565" x1="603.133" y1="2.18557e-08" x2="603.133" y2="308.429" gradientUnits="userSpaceOnUse">
<stop stop-color="white"/>
<stop offset="0.5" stop-color="#F5F5F5"/>
<stop offset="1" stop-color="white"/>
</linearGradient>
<linearGradient id="paint10_linear_409_565" x1="647.945" y1="2.18557e-08" x2="647.945" y2="308.429" gradientUnits="userSpaceOnUse">
<stop stop-color="white"/>
<stop offset="0.5" stop-color="#F5F5F5"/>
<stop offset="1" stop-color="white"/>
</linearGradient>
<linearGradient id="paint11_linear_409_565" x1="692.758" y1="2.18557e-08" x2="692.758" y2="308.429" gradientUnits="userSpaceOnUse">
<stop stop-color="white"/>
<stop offset="0.5" stop-color="#F5F5F5"/>
<stop offset="1" stop-color="white"/>
</linearGradient>
<linearGradient id="paint12_linear_409_565" x1="737.57" y1="2.18557e-08" x2="737.57" y2="308.429" gradientUnits="userSpaceOnUse">
<stop stop-color="white"/>
<stop offset="0.5" stop-color="#F5F5F5"/>
<stop offset="1" stop-color="white"/>
</linearGradient>
<linearGradient id="paint13_linear_409_565" x1="782.383" y1="2.18557e-08" x2="782.383" y2="308.429" gradientUnits="userSpaceOnUse">
<stop stop-color="white"/>
<stop offset="0.5" stop-color="#F5F5F5"/>
<stop offset="1" stop-color="white"/>
</linearGradient>
<linearGradient id="paint14_linear_409_565" x1="827.195" y1="2.18557e-08" x2="827.195" y2="308.429" gradientUnits="userSpaceOnUse">
<stop stop-color="white"/>
<stop offset="0.5" stop-color="#F5F5F5"/>
<stop offset="1" stop-color="white"/>
</linearGradient>
<linearGradient id="paint15_linear_409_565" x1="872.008" y1="2.18557e-08" x2="872.008" y2="308.429" gradientUnits="userSpaceOnUse">
<stop stop-color="white"/>
<stop offset="0.5" stop-color="#F5F5F5"/>
<stop offset="1" stop-color="white"/>
</linearGradient>
<linearGradient id="paint16_linear_409_565" x1="916.82" y1="2.18557e-08" x2="916.82" y2="308.429" gradientUnits="userSpaceOnUse">
<stop stop-color="white"/>
<stop offset="0.5" stop-color="#F5F5F5"/>
<stop offset="1" stop-color="white"/>
</linearGradient>
<linearGradient id="paint17_linear_409_565" x1="961.633" y1="2.18557e-08" x2="961.633" y2="308.429" gradientUnits="userSpaceOnUse">
<stop stop-color="white"/>
<stop offset="0.5" stop-color="#F5F5F5"/>
<stop offset="1" stop-color="white"/>
</linearGradient>
<linearGradient id="paint18_linear_409_565" x1="1006.45" y1="2.18557e-08" x2="1006.45" y2="308.429" gradientUnits="userSpaceOnUse">
<stop stop-color="white"/>
<stop offset="0.5" stop-color="#F5F5F5"/>
<stop offset="1" stop-color="white"/>
</linearGradient>
<linearGradient id="paint19_linear_409_565" x1="1051.26" y1="2.18557e-08" x2="1051.26" y2="308.429" gradientUnits="userSpaceOnUse">
<stop stop-color="white"/>
<stop offset="0.5" stop-color="#F5F5F5"/>
<stop offset="1" stop-color="white"/>
</linearGradient>
<linearGradient id="paint20_linear_409_565" x1="1096.07" y1="2.18557e-08" x2="1096.07" y2="308.429" gradientUnits="userSpaceOnUse">
<stop stop-color="white"/>
<stop offset="0.5" stop-color="#F5F5F5"/>
<stop offset="1" stop-color="white"/>
</linearGradient>
<linearGradient id="paint21_linear_409_565" x1="1140.88" y1="2.18557e-08" x2="1140.88" y2="308.429" gradientUnits="userSpaceOnUse">
<stop stop-color="white"/>
<stop offset="0.5" stop-color="#F5F5F5"/>
<stop offset="1" stop-color="white"/>
</linearGradient>
<linearGradient id="paint22_linear_409_565" x1="1185.7" y1="2.18557e-08" x2="1185.7" y2="308.429" gradientUnits="userSpaceOnUse">
<stop stop-color="white"/>
<stop offset="0.5" stop-color="#F5F5F5"/>
<stop offset="1" stop-color="white"/>
</linearGradient>
<linearGradient id="paint23_linear_409_565" x1="1230.51" y1="2.18557e-08" x2="1230.51" y2="308.429" gradientUnits="userSpaceOnUse">
<stop stop-color="white"/>
<stop offset="0.5" stop-color="#F5F5F5"/>
<stop offset="1" stop-color="white"/>
</linearGradient>
<linearGradient id="paint24_linear_409_565" x1="246.266" y1="2.18557e-08" x2="246.266" y2="308.429" gradientUnits="userSpaceOnUse">
<stop stop-color="white"/>
<stop offset="0.5" stop-color="#F5F5F5"/>
<stop offset="1" stop-color="white"/>
</linearGradient>
<linearGradient id="paint25_linear_409_565" x1="291.078" y1="2.18557e-08" x2="291.078" y2="308.429" gradientUnits="userSpaceOnUse">
<stop stop-color="white"/>
<stop offset="0.5" stop-color="#F5F5F5"/>
<stop offset="1" stop-color="white"/>
</linearGradient>
<linearGradient id="paint26_linear_409_565" x1="335.891" y1="2.18557e-08" x2="335.891" y2="308.429" gradientUnits="userSpaceOnUse">
<stop stop-color="white"/>
<stop offset="0.5" stop-color="#F5F5F5"/>
<stop offset="1" stop-color="white"/>
</linearGradient>
</defs>
</svg>
