<svg width="1611" height="257" viewBox="0 0 1611 257" fill="none" xmlns="http://www.w3.org/2000/svg">
<path d="M704.49 0C717.349 0 727.774 10.425 727.774 23.2842C727.774 30.9917 724.028 37.8239 718.258 42.0615C714.607 45.9246 717.681 52.9389 725.161 55.2881H780.48C794.05 55.2883 805.05 66.2887 805.05 79.8584V232.195C805.05 245.765 794.05 256.766 780.48 256.767H628.142C614.572 256.767 603.572 245.765 603.572 232.195V79.8584C603.572 66.2886 614.572 55.2882 628.142 55.2881H680.848C684.04 53.6018 693.215 47.493 690.634 41.9971C684.914 37.7548 681.207 30.9527 681.207 23.2842C681.207 10.4251 691.631 0.000170812 704.49 0ZM603.573 176.878C605.922 169.397 612.937 166.324 616.8 169.977C621.038 175.745 627.87 179.489 635.577 179.489C648.436 179.489 658.86 169.065 658.86 156.206C658.86 143.347 648.436 132.922 635.577 132.922C627.907 132.922 621.103 136.631 616.861 142.353C611.366 144.929 605.259 135.757 603.573 132.565V176.878ZM805.049 132.565C803.363 135.757 797.255 144.931 791.76 142.353C787.518 136.631 780.716 132.922 773.046 132.922C760.187 132.922 749.762 143.347 749.762 156.206C749.762 169.065 760.187 179.489 773.046 179.489C780.752 179.489 787.582 175.745 791.82 169.979C795.682 166.322 802.7 169.396 805.049 176.878V132.565Z" fill="#281D21"/>
<path d="M1307.99 0C1320.85 0 1331.27 10.425 1331.27 23.2842C1331.27 30.9917 1327.52 37.8239 1321.75 42.0615C1318.1 45.9246 1321.18 52.9389 1328.66 55.2881H1383.98C1397.55 55.2883 1408.55 66.2887 1408.55 79.8584V132.565C1406.86 135.757 1400.75 144.931 1395.26 142.353C1391.01 136.631 1384.21 132.922 1376.54 132.922C1363.68 132.922 1353.26 143.347 1353.26 156.206C1353.26 169.065 1363.68 179.489 1376.54 179.489C1384.25 179.489 1391.08 175.745 1395.32 169.979C1399.18 166.322 1406.2 169.396 1408.55 176.878V232.195C1408.55 245.765 1397.55 256.766 1383.98 256.767H1231.64C1218.07 256.767 1207.07 245.765 1207.07 232.195V79.8584C1207.07 66.2886 1218.07 55.2882 1231.64 55.2881H1284.34C1287.54 53.6018 1296.71 47.493 1294.13 41.9971C1288.41 37.7548 1284.7 30.9527 1284.7 23.2842C1284.7 10.4251 1295.13 0.000170812 1307.99 0ZM1207.07 176.878C1209.42 169.397 1216.43 166.324 1220.3 169.977C1224.53 175.745 1231.37 179.489 1239.07 179.489C1251.93 179.489 1262.36 169.065 1262.36 156.206C1262.36 143.347 1251.93 132.922 1239.07 132.922C1231.4 132.922 1224.6 136.631 1220.36 142.353C1214.86 144.929 1208.76 135.757 1207.07 132.565V176.878Z" fill="#281D21"/>
<path d="M1610.03 232.194C1610.03 245.764 1599.02 256.765 1585.46 256.765H1532.75C1529.56 255.079 1520.38 248.97 1522.96 243.475C1528.68 239.233 1532.39 232.43 1532.39 224.761C1532.39 211.902 1521.97 201.477 1509.11 201.477C1496.25 201.477 1485.82 211.902 1485.82 224.761C1485.82 232.466 1489.57 239.296 1495.33 243.534C1498.99 247.397 1495.92 254.415 1488.44 256.765H1433.12C1419.55 256.765 1408.55 245.764 1408.55 232.194V79.8564C1408.55 66.2866 1419.55 55.2861 1433.12 55.2861H1585.46C1599.02 55.2862 1610.03 66.2867 1610.03 79.8564V232.194ZM1488.44 55.2871C1495.92 57.6369 1498.99 64.6542 1495.33 68.5166C1489.57 72.7545 1485.82 79.5847 1485.82 87.29C1485.82 100.149 1496.25 110.574 1509.11 110.574C1521.97 110.574 1532.39 100.149 1532.39 87.29C1532.39 79.6206 1528.68 72.8183 1522.96 68.5762C1520.38 63.081 1529.56 56.9736 1532.75 55.2871H1488.44Z" fill="#281D21"/>
<path d="M100.636 0C87.7773 0.000263913 77.3521 10.4252 77.3521 23.2842C77.3521 30.9908 81.0972 37.8228 86.8657 42.0605C90.5188 45.9234 87.4449 52.9388 79.9644 55.2881H24.646C11.0763 55.2883 0.0757888 66.2887 0.0756836 79.8584V232.195C0.0756836 245.765 11.0763 256.766 24.646 256.767H176.984C190.554 256.767 201.554 245.765 201.554 232.195V79.8584C201.554 66.2886 190.554 55.2882 176.984 55.2881H124.277C121.085 53.6014 111.911 47.4932 114.49 41.998C120.211 37.7558 123.919 30.9535 123.919 23.2842C123.919 10.4251 113.495 0.000154036 100.636 0ZM201.553 176.878C199.203 169.396 192.186 166.322 188.324 169.979C184.086 175.746 177.255 179.489 169.549 179.489C156.69 179.489 146.266 169.065 146.266 156.206C146.266 143.347 156.69 132.922 169.549 132.922C177.219 132.922 184.022 136.631 188.264 142.353C193.759 144.931 199.867 135.757 201.553 132.565V176.878ZM0.0766602 132.565C1.76312 135.757 7.87057 144.93 13.3657 142.353C17.6079 136.631 24.4109 132.922 32.0806 132.922C44.9397 132.922 55.3638 143.347 55.3638 156.206C55.3636 169.065 44.9396 179.489 32.0806 179.489C24.3751 179.489 17.5441 175.746 13.3062 169.979C9.44376 166.322 2.4264 169.396 0.0766602 176.878V132.565Z" fill="#281D21"/>
<path d="M659.33 156.206C659.33 169.065 648.904 179.49 636.045 179.49C628.339 179.49 621.508 175.746 617.27 169.978C613.407 166.323 606.391 169.397 604.042 176.878V232.196C604.041 245.766 593.041 256.766 579.471 256.767H526.766C523.574 255.08 514.399 248.971 516.98 243.476C522.7 239.233 526.409 232.431 526.409 224.762C526.409 211.903 515.983 201.479 503.125 201.479C490.266 201.479 479.841 211.903 479.841 224.762C479.841 232.469 483.586 239.301 489.355 243.539C493.008 247.402 489.934 254.417 482.454 256.767H427.135C413.565 256.767 402.565 245.766 402.565 232.196V79.8574C402.565 66.2877 413.565 55.2871 427.135 55.2871H482.454C489.934 57.6364 493.008 64.6517 489.355 68.5146C483.586 72.7524 479.841 79.585 479.841 87.292C479.841 100.151 490.266 110.575 503.125 110.575C515.983 110.575 526.409 100.151 526.409 87.292C526.409 79.6231 522.7 72.8205 516.98 68.5781C514.399 63.0822 523.574 56.9734 526.766 55.2871H579.471C593.041 55.2874 604.041 66.2879 604.042 79.8574V132.564C605.702 135.707 611.648 144.648 617.076 142.463L617.334 142.35C621.577 136.63 628.378 132.923 636.045 132.923C648.904 132.923 659.329 143.347 659.33 156.206Z" fill="#281D21"/>
<path d="M1262.83 156.206C1262.83 169.065 1252.4 179.49 1239.54 179.49C1231.84 179.49 1225 175.746 1220.77 169.978C1216.9 166.323 1209.89 169.397 1207.54 176.878V232.196C1207.54 245.766 1196.54 256.766 1182.97 256.767H1130.26C1127.07 255.08 1117.9 248.971 1120.48 243.476C1126.2 239.233 1129.9 232.431 1129.9 224.762C1129.9 211.903 1119.48 201.479 1106.62 201.479C1093.76 201.479 1083.34 211.903 1083.34 224.762C1083.34 232.469 1087.08 239.301 1092.85 243.539C1096.5 247.402 1093.43 254.417 1085.95 256.767H1030.63C1017.06 256.767 1006.06 245.766 1006.06 232.196V79.8574C1006.06 66.2877 1017.06 55.2871 1030.63 55.2871H1085.95C1093.43 57.6364 1096.5 64.6517 1092.85 68.5146C1087.08 72.7524 1083.34 79.585 1083.34 87.292C1083.34 100.151 1093.76 110.575 1106.62 110.575C1119.48 110.575 1129.9 100.151 1129.9 87.292C1129.9 79.6231 1126.2 72.8205 1120.48 68.5781C1117.9 63.0822 1127.07 56.9734 1130.26 55.2871H1182.97C1196.54 55.2874 1207.54 66.2879 1207.54 79.8574V132.564C1209.2 135.707 1215.14 144.648 1220.57 142.463L1220.83 142.35C1225.07 136.63 1231.87 132.923 1239.54 132.923C1252.4 132.923 1262.83 143.347 1262.83 156.206Z" fill="#281D21"/>
<path d="M749.294 155.847C749.295 142.988 759.72 132.563 772.579 132.562C780.284 132.563 787.114 136.307 791.352 142.073C795.214 145.73 802.233 142.657 804.583 135.175V79.8584C804.583 66.2888 815.583 55.2883 829.153 55.2881H881.857C885.049 56.9745 894.225 63.0833 891.644 68.5791C885.924 72.8214 882.215 79.6241 882.215 87.293C882.216 100.152 892.641 110.576 905.5 110.576C918.358 110.576 928.782 100.152 928.783 87.293C928.783 79.5865 925.038 72.7545 919.27 68.5166C915.615 64.6539 918.689 57.6376 926.17 55.2881H981.49C995.059 55.2882 1006.06 66.2887 1006.06 79.8584V232.196C1006.06 245.766 995.059 256.767 981.49 256.767H926.17C918.69 254.417 915.616 247.402 919.269 243.539C925.038 239.301 928.783 232.469 928.783 224.762C928.783 211.903 918.358 201.479 905.5 201.479C892.64 201.479 882.215 211.903 882.215 224.762C882.215 232.431 885.924 239.233 891.644 243.476C894.224 248.971 885.049 255.08 881.857 256.767H829.153C815.583 256.766 804.583 245.766 804.583 232.196V179.487C802.896 176.295 796.787 167.121 791.292 169.701C787.049 175.421 780.247 179.13 772.579 179.13C759.72 179.13 749.295 168.706 749.294 155.847Z" fill="#281D21"/>
<path d="M146.266 155.847C146.266 142.988 156.691 132.564 169.55 132.563C177.255 132.564 184.086 136.307 188.324 142.073C192.186 145.73 199.204 142.657 201.554 135.175V79.8584C201.554 66.2888 212.555 55.2883 226.125 55.2881H278.829C282.021 56.9745 291.196 63.0833 288.616 68.5791C282.895 72.8214 279.187 79.6241 279.187 87.293C279.187 100.152 289.612 110.576 302.471 110.576C315.33 110.576 325.754 100.152 325.754 87.293C325.754 79.5865 322.01 72.7545 316.242 68.5166C312.587 64.6539 315.661 57.6376 323.142 55.2881H378.461C392.031 55.2882 403.032 66.2887 403.033 79.8584V232.196C403.032 245.766 392.031 256.767 378.461 256.767H323.142C315.662 254.417 312.588 247.402 316.241 243.539C322.01 239.301 325.754 232.469 325.754 224.762C325.754 211.903 315.33 201.479 302.471 201.479C289.612 201.479 279.187 211.903 279.187 224.762C279.187 232.431 282.895 239.233 288.616 243.476C291.196 248.971 282.02 255.08 278.829 256.767H226.125C212.555 256.766 201.555 245.766 201.554 232.196V179.487C199.867 176.295 193.759 167.121 188.263 169.701C184.021 175.421 177.219 179.13 169.55 179.13C156.691 179.13 146.266 168.706 146.266 155.847Z" fill="#281D21"/>
<rect y="128" width="1610" height="129" fill="#281D21"/>
</svg>
