<svg width="682" height="217" viewBox="0 0 682 217" fill="none" xmlns="http://www.w3.org/2000/svg">
<path d="M51.9043 44.0908H87.0889V-36.251H87.9072V44.0908H123.092V-36.251H123.91V44.0908H159.763V-36.251H160.581V44.0908H196.433V-36.251H197.251V44.0908H233.104V-36.251H233.922V44.0908H269.774V-36.251H270.593V44.0908H306.445V-36.251H307.264V44.0908H343.116V-36.251H343.935V44.0908H379.786V-36.251H380.604V44.0908H416.457V-36.251H417.275V44.0908H453.128V-36.251H453.946V44.0908H489.799V-36.251H490.617V44.0908H526.469V-36.251H527.287V44.0908H563.14V-36.251H563.958V44.0908H599.811V-36.251H600.629V44.0908H636.48V-36.251H637.299V44.0908H681.909V44.9092H637.299V80.7617H681.909V81.5801H637.299V117.432H681.909V118.25H637.299V154.256H681.909V155.074H637.299V216.141H636.48V155.074H600.629V216.141H599.811V155.074H563.958V216.141H563.14V155.074H527.287V216.141H526.469V155.074H490.617V216.141H489.799V155.074H453.946V216.141H453.128V155.074H417.275V216.141H416.457V155.074H380.604V216.141H379.786V155.074H343.935V216.141H343.116V155.074H307.264V216.141H306.445V155.074H270.593V216.141H269.774V155.074H233.922V216.141H233.104V155.074H197.251V216.141H196.433V155.074H160.581V216.141H159.763V155.074H123.91V216.141H123.092V155.074H87.9072V216.141H87.0889V155.074H51.9043V216.141H51.0859V155.074H0V154.256H51.0859V118.25H0V117.432H51.0859V81.5801H0V80.7617H51.0859V44.9092H0V44.0908H51.0859V-36.251H51.9043V44.0908ZM51.9043 154.256H87.0889V118.25H51.9043V154.256ZM87.9072 154.256H123.092V118.25H87.9072V154.256ZM123.91 154.256H159.763V118.25H123.91V154.256ZM160.581 154.256H196.433V118.25H160.581V154.256ZM197.251 154.256H233.104V118.25H197.251V154.256ZM233.922 154.256H269.774V118.25H233.922V154.256ZM270.593 154.256H306.445V118.25H270.593V154.256ZM307.264 154.256H343.116V118.25H307.264V154.256ZM343.935 154.256H379.786V118.25H343.935V154.256ZM380.604 154.256H416.457V118.25H380.604V154.256ZM417.275 154.256H453.128V118.25H417.275V154.256ZM453.946 154.256H489.799V118.25H453.946V154.256ZM490.617 154.256H526.469V118.25H490.617V154.256ZM527.287 154.256H563.14V118.25H527.287V154.256ZM563.958 154.256H599.811V118.25H563.958V154.256ZM600.629 154.256H636.48V118.25H600.629V154.256ZM51.9043 117.432H87.0889V81.5801H51.9043V117.432ZM87.9072 117.432H123.092V81.5801H87.9072V117.432ZM123.91 117.432H159.763V81.5801H123.91V117.432ZM160.581 117.432H196.433V81.5801H160.581V117.432ZM197.251 117.432H233.104V81.5801H197.251V117.432ZM233.922 117.432H269.774V81.5801H233.922V117.432ZM270.593 117.432H306.445V81.5801H270.593V117.432ZM307.264 117.432H343.116V81.5801H307.264V117.432ZM343.935 117.432H379.786V81.5801H343.935V117.432ZM380.604 117.432H416.457V81.5801H380.604V117.432ZM417.275 117.432H453.128V81.5801H417.275V117.432ZM453.946 117.432H489.799V81.5801H453.946V117.432ZM490.617 117.432H526.469V81.5801H490.617V117.432ZM527.287 117.432H563.14V81.5801H527.287V117.432ZM563.958 117.432H599.811V81.5801H563.958V117.432ZM600.629 117.432H636.48V81.5801H600.629V117.432ZM51.9043 80.7617H87.0889V44.9092H51.9043V80.7617ZM87.9072 80.7617H123.092V44.9092H87.9072V80.7617ZM123.91 80.7617H159.763V44.9092H123.91V80.7617ZM160.581 80.7617H196.433V44.9092H160.581V80.7617ZM197.251 80.7617H233.104V44.9092H197.251V80.7617ZM233.922 80.7617H269.774V44.9092H233.922V80.7617ZM270.593 80.7617H306.445V44.9092H270.593V80.7617ZM307.264 80.7617H343.116V44.9092H307.264V80.7617ZM343.935 80.7617H379.786V44.9092H343.935V80.7617ZM380.604 80.7617H416.457V44.9092H380.604V80.7617ZM417.275 80.7617H453.128V44.9092H417.275V80.7617ZM453.946 80.7617H489.799V44.9092H453.946V80.7617ZM490.617 80.7617H526.469V44.9092H490.617V80.7617ZM527.287 80.7617H563.14V44.9092H527.287V80.7617ZM563.958 80.7617H599.811V44.9092H563.958V80.7617ZM600.629 80.7617H636.48V44.9092H600.629V80.7617Z" fill="url(#paint0_radial_390_16871)"/>
<path d="M150.719 99.4932C150.719 97.2097 152.571 95.3584 154.854 95.3584C156.221 95.3586 157.434 96.0217 158.187 97.0439C158.872 97.6968 160.119 97.1525 160.537 95.8223V85.3008C160.537 83.2768 162.178 81.6357 164.202 81.6357H174.261C174.828 81.9352 176.457 83.0201 175.999 83.9961H176.001C174.985 84.7495 174.325 85.9572 174.325 87.3193C174.325 89.6029 176.177 91.454 178.461 91.4541C180.745 91.4539 182.596 89.6029 182.596 87.3193C182.596 85.9521 181.932 84.7401 180.909 83.9873C180.256 83.302 180.8 82.0537 182.131 81.6357H192.655C194.679 81.6357 196.32 83.2768 196.32 85.3008V113.752C196.32 115.776 194.679 117.417 192.655 117.417H182.131C180.8 116.999 180.256 115.751 180.909 115.065C181.932 114.313 182.596 113.101 182.596 111.733C182.596 109.45 180.745 107.599 178.461 107.599C176.177 107.599 174.325 109.45 174.325 111.733C174.325 113.096 174.985 114.303 176.001 115.057H175.999C176.457 116.033 174.828 117.118 174.261 117.417H164.202C162.178 117.417 160.537 115.776 160.537 113.752V103.692C160.238 103.126 159.154 101.498 158.179 101.953C157.425 102.97 156.217 103.628 154.854 103.628C152.571 103.628 150.719 101.777 150.719 99.4932Z" fill="#DEDDDE"/>
<path d="M573.148 99.0762C573.148 96.7927 571.296 94.9414 569.013 94.9414C567.646 94.9416 566.433 95.6047 565.681 96.627C564.995 97.2798 563.748 96.7355 563.33 95.4053V84.8838C563.33 82.8598 561.689 81.2188 559.665 81.2188H549.606C549.04 81.5182 547.41 82.6031 547.868 83.5791H547.866C548.882 84.3325 549.542 85.5402 549.542 86.9023C549.542 89.186 547.69 91.037 545.406 91.0371C543.123 91.0369 541.272 89.1859 541.271 86.9023C541.271 85.5351 541.935 84.3231 542.958 83.5703C543.611 82.885 543.067 81.6367 541.736 81.2188H531.212C529.188 81.2188 527.547 82.8598 527.547 84.8838V113.335C527.547 115.359 529.188 117 531.212 117H541.736C543.067 116.582 543.611 115.334 542.958 114.648C541.935 113.896 541.271 112.684 541.271 111.316C541.272 109.033 543.123 107.182 545.406 107.182C547.69 107.182 549.542 109.033 549.542 111.316C549.542 112.679 548.883 113.886 547.866 114.64H547.868C547.41 115.616 549.04 116.701 549.606 117H559.665C561.689 117 563.33 115.359 563.33 113.335V103.275C563.629 102.709 564.713 101.081 565.688 101.536C566.442 102.553 567.65 103.211 569.013 103.211C571.297 103.211 573.148 101.36 573.148 99.0762Z" fill="#DEDDDE"/>
<path d="M141.837 35.1572C144.12 35.1574 145.972 37.0083 145.972 39.292C145.972 40.658 145.309 41.8691 144.288 42.6221C143.632 43.307 144.176 44.5573 145.508 44.9756H156.029C158.053 44.9756 159.694 46.6167 159.694 48.6406V58.6992C159.395 59.2661 158.31 60.8958 157.334 60.4375V60.4395C156.581 59.4232 155.373 58.7637 154.011 58.7637C151.727 58.7637 149.876 60.6157 149.876 62.8994C149.876 65.1831 151.727 67.0341 154.011 67.0342C155.378 67.0341 156.59 66.3704 157.343 65.3477C158.028 64.6942 159.276 65.2389 159.694 66.5693V77.0938C159.694 79.1177 158.053 80.7588 156.029 80.7588H127.578C125.554 80.7588 123.913 79.1177 123.913 77.0938V66.5693C124.331 65.2389 125.579 64.6942 126.265 65.3477C127.017 66.3704 128.229 67.0341 129.597 67.0342C131.88 67.0342 133.731 65.1831 133.731 62.8994C133.731 60.6156 131.88 58.7637 129.597 58.7637C128.235 58.7637 127.027 59.4231 126.273 60.4395V60.4375C125.297 60.8958 124.213 59.2661 123.913 58.6992V48.6406C123.913 46.6167 125.554 44.9756 127.578 44.9756H137.638C138.205 44.676 139.834 43.5912 139.376 42.6152C138.36 41.8618 137.702 40.6539 137.702 39.292C137.702 37.0082 139.553 35.1572 141.837 35.1572Z" fill="#E7E7E7"/>
<path d="M508.587 90.5537C510.87 90.5535 512.721 88.7026 512.721 86.4189C512.721 85.053 512.059 83.8419 511.038 83.0889C510.381 82.4039 510.926 81.1537 512.258 80.7354H522.779C524.803 80.7354 526.444 79.0943 526.444 77.0703V67.0117C526.145 66.4448 525.06 64.8151 524.084 65.2734V65.2715C523.33 66.2878 522.123 66.9472 520.76 66.9473C518.477 66.9472 516.626 65.0953 516.626 62.8115C516.626 60.5279 518.477 58.6768 520.76 58.6768C522.128 58.6768 523.34 59.3405 524.093 60.3633C524.778 61.0168 526.026 60.4721 526.444 59.1416V48.6172C526.444 46.5932 524.803 44.9521 522.779 44.9521H494.328C492.304 44.9521 490.663 46.5932 490.663 48.6172V59.1416C491.081 60.472 492.329 61.0167 493.014 60.3633C493.767 59.3405 494.979 58.6768 496.346 58.6768C498.63 58.6768 500.481 60.5279 500.481 62.8115C500.481 65.0953 498.63 66.9473 496.346 66.9473C494.984 66.9472 493.777 66.2878 493.023 65.2715V65.2734C492.047 64.8152 490.962 66.4448 490.663 67.0117V77.0703C490.663 79.0943 492.304 80.7354 494.328 80.7354H504.387C504.954 81.0349 506.584 82.1197 506.126 83.0957C505.11 83.8492 504.452 85.057 504.452 86.4189C504.452 88.7027 506.303 90.5537 508.587 90.5537Z" fill="#E7E7E7"/>
<path d="M41.4375 62.8662C41.4377 60.5827 43.2896 58.7315 45.5732 58.7314C46.9401 58.7316 48.1525 59.3948 48.9053 60.417C49.5907 61.0698 50.8381 60.5256 51.2559 59.1953V48.6738C51.2559 46.6499 52.897 45.0088 54.9209 45.0088H64.9795C65.5464 45.3083 67.1761 46.3931 66.7178 47.3691H66.7197C65.7034 48.1225 65.0439 49.3302 65.0439 50.6924C65.044 52.976 66.8959 54.8271 69.1797 54.8271C71.4633 54.827 73.3144 52.9759 73.3145 50.6924C73.3145 49.3251 72.6507 48.1131 71.6279 47.3604C70.9744 46.6751 71.5192 45.4267 72.8496 45.0088H83.374C85.398 45.0088 87.0391 46.6499 87.0391 48.6738V77.125C87.0391 79.1489 85.398 80.79 83.374 80.79H72.8496C71.5192 80.3721 70.9745 79.1238 71.6279 78.4385C72.6507 77.6857 73.3145 76.4737 73.3145 75.1064C73.3144 72.8229 71.4633 70.9719 69.1797 70.9717C66.8959 70.9717 65.044 72.8228 65.0439 75.1064C65.0439 76.4686 65.7034 77.6763 66.7197 78.4297H66.7178C67.1761 79.4057 65.5464 80.4906 64.9795 80.79H54.9209C52.897 80.79 51.2559 79.1489 51.2559 77.125V67.0654C50.9565 66.4988 49.8729 64.8711 48.8975 65.3262C48.1442 66.3426 46.9355 67.0008 45.5732 67.001C43.2894 67.0009 41.4375 65.1499 41.4375 62.8662Z" fill="#EDEDED"/>
<path d="M33.2246 53.8809C35.5081 53.8806 37.3593 52.0298 37.3594 49.7461C37.3594 48.3801 36.6967 47.169 35.6758 46.416C35.0192 45.7311 35.5636 44.4808 36.8955 44.0625H47.417C49.4409 44.0625 51.082 42.4214 51.082 40.3975V30.3389C50.7826 29.772 49.6977 28.1423 48.7217 28.6006V28.5986C47.9684 29.6149 46.7606 30.2743 45.3984 30.2744C43.1148 30.2744 41.2637 28.4224 41.2637 26.1387C41.2639 23.855 43.1149 22.0039 45.3984 22.0039C46.7657 22.004 47.9777 22.6677 48.7305 23.6904C49.4158 24.3439 50.6641 23.7992 51.082 22.4687V11.9443C51.082 9.92039 49.4409 8.2793 47.417 8.2793H18.9658C16.9419 8.2793 15.3008 9.92039 15.3008 11.9443V22.4688C15.7187 23.7992 16.967 24.3439 17.6523 23.6904C18.4051 22.6677 19.6171 22.004 20.9844 22.0039C23.2679 22.0039 25.1189 23.855 25.1191 26.1387C25.1191 28.4225 23.268 30.2744 20.9844 30.2744C19.6222 30.2743 18.4145 29.6149 17.6611 28.5986V28.6006C16.6851 28.1423 15.6002 29.772 15.3008 30.3389V40.3975C15.3008 42.4214 16.9419 44.0625 18.9658 44.0625H29.0254C29.5924 44.3621 31.2219 45.4469 30.7637 46.4229C29.7479 47.1763 29.0898 48.3842 29.0898 49.7461C29.0899 52.0299 30.9409 53.8809 33.2246 53.8809Z" fill="#EDEDED"/>
<path d="M590.286 27.0273C590.286 24.7438 592.138 22.8926 594.422 22.8926C595.789 22.8927 597.001 23.5559 597.754 24.5781C598.439 25.2309 599.687 24.6867 600.104 23.3564V12.835C600.104 10.811 601.746 9.16992 603.77 9.16992H613.828C614.395 9.46938 616.025 10.5542 615.566 11.5303H615.568C614.552 12.2836 613.893 13.4913 613.893 14.8535C613.893 17.1371 615.745 18.9882 618.028 18.9883C620.312 18.9881 622.163 17.137 622.163 14.8535C622.163 13.4862 621.499 12.2743 620.477 11.5215C619.823 10.8362 620.368 9.58787 621.698 9.16992H632.223C634.247 9.16992 635.888 10.811 635.888 12.835V41.2861C635.888 43.3101 634.247 44.9512 632.223 44.9512H621.698C620.368 44.5332 619.823 43.2849 620.477 42.5996C621.499 41.8468 622.163 40.6348 622.163 39.2676C622.163 36.984 620.312 35.133 618.028 35.1328C615.745 35.1329 613.893 36.9839 613.893 39.2676C613.893 40.6298 614.552 41.8374 615.568 42.5908H615.566C616.025 43.5668 614.395 44.6517 613.828 44.9512H603.77C601.746 44.9512 600.104 43.3101 600.104 41.2861V31.2266C599.805 30.66 598.722 29.0322 597.746 29.4873C596.993 30.5037 595.784 31.162 594.422 31.1621C592.138 31.1621 590.286 29.311 590.286 27.0273Z" fill="#EDEDED"/>
<defs>
<radialGradient id="paint0_radial_390_16871" cx="0" cy="0" r="1" gradientUnits="userSpaceOnUse" gradientTransform="translate(340.955 107.733) rotate(90) scale(123.653 334.085)">
<stop stop-color="#DDDDDD"/>
<stop offset="0.95" stop-color="#F5F5F5"/>
</radialGradient>
</defs>
</svg>
