<svg width="56" height="26" viewBox="0 0 56 26" fill="none" xmlns="http://www.w3.org/2000/svg">
<path d="M12.9746 0.000976562C13.694 0.000976562 14.2773 0.584316 14.2773 1.30371V13.1826C14.2773 13.902 13.694 14.4854 12.9746 14.4854H9.35645C8.63705 14.4854 8.05371 15.0687 8.05371 15.7881V23.8711C8.05371 24.5905 7.47037 25.1738 6.75098 25.1738H1.30273C0.583339 25.1738 0 24.5905 0 23.8711V1.30371C0 0.584316 0.583339 0.000976562 1.30273 0.000976562H12.9746ZM7.13867 4.74023C5.97099 4.74023 5.02461 5.87085 5.02441 7.26562C5.02441 8.6606 5.97087 9.79199 7.13867 9.79199C8.30636 9.79183 9.25293 8.6605 9.25293 7.26562C9.25273 5.87095 8.30623 4.7404 7.13867 4.74023Z" fill="#281D21"/>
<path fill-rule="evenodd" clip-rule="evenodd" d="M53.9487 0.000976562C54.6677 0.00142089 55.2505 0.58459 55.2505 1.30371V10.2803C55.0017 11.0724 54.2825 11.4564 53.8413 11.1455C53.3755 10.4483 52.5806 9.98926 51.6792 9.98926C50.2448 9.98952 49.0815 11.1524 49.0815 12.5869C49.0815 14.0214 50.2448 15.1843 51.6792 15.1846C52.5222 15.1846 53.2701 14.7815 53.7446 14.1592L53.7437 14.1787C54.3567 13.8906 55.0621 14.8672 55.2505 15.2236V23.8711C55.2504 24.5902 54.6677 25.1734 53.9487 25.1738H42.3599C41.6407 25.1736 41.0572 24.5903 41.0571 23.8711V1.30371C41.0571 0.584438 41.6406 0.00117444 42.3599 0.000976562H53.9487Z" fill="#281D21"/>
<path d="M23.0576 0C23.6331 0 24.0996 0.466509 24.0996 1.04199V24.1299C24.0996 24.7054 23.6331 25.1719 23.0576 25.1719H17.5967C17.0212 25.1718 16.5547 24.7054 16.5547 24.1299V1.04199C16.5547 0.466533 17.0212 3.88628e-05 17.5967 0H23.0576ZM27.5615 10.0508C28.3434 10.0509 29.0423 10.4073 29.5039 10.9668C29.863 11.402 30.0781 11.9603 30.0781 12.5684C30.078 13.6496 29.3948 14.5686 28.4375 14.9248C28.1644 15.0264 27.87 15.0849 27.5615 15.085L27.5605 15.084V15.085C27.4854 15.085 27.4113 15.0797 27.3379 15.0732C27.319 15.0716 27.3001 15.0704 27.2812 15.0684C27.2106 15.0605 27.141 15.0497 27.0723 15.0361C27.0549 15.0327 27.0377 15.0292 27.0205 15.0254C26.8817 14.9949 26.7473 14.9529 26.6182 14.9004C26.598 14.8922 26.5776 14.8847 26.5576 14.876C26.5032 14.8522 26.4498 14.8263 26.3975 14.7988C26.3687 14.7838 26.3406 14.768 26.3125 14.752C26.2724 14.7289 26.233 14.7049 26.1943 14.6797C26.1564 14.6551 26.1195 14.6291 26.083 14.6025C26.0648 14.5892 26.0471 14.5753 26.0293 14.5615C25.8431 14.4183 25.6778 14.2504 25.5381 14.0615V14.0654C24.9439 13.7861 24.2829 14.7789 24.1006 15.124V10.333C24.356 11.1462 25.122 11.4774 25.5381 11.0723V11.0732C25.5487 11.0589 25.5604 11.0454 25.5713 11.0312C25.608 10.9838 25.6456 10.9373 25.6855 10.8926C25.6978 10.8788 25.7101 10.865 25.7227 10.8516L25.7812 10.7881C25.8512 10.7181 25.9261 10.6532 26.0039 10.5918C26.0364 10.5661 26.0698 10.5417 26.1035 10.5176C26.1392 10.4921 26.1758 10.4679 26.2129 10.4443C26.2458 10.4234 26.2786 10.4023 26.3125 10.3828C26.3398 10.3672 26.3676 10.3525 26.3955 10.3379C26.4526 10.3079 26.5107 10.2795 26.5703 10.2539C26.58 10.2498 26.5899 10.2462 26.5996 10.2422C26.6644 10.2153 26.7304 10.1905 26.7979 10.1689C26.8044 10.1669 26.8108 10.1641 26.8174 10.1621C26.887 10.1405 26.9582 10.1229 27.0303 10.1074C27.0442 10.1044 27.0582 10.1014 27.0723 10.0986C27.141 10.0851 27.2106 10.0742 27.2812 10.0664C27.3 10.0643 27.319 10.0632 27.3379 10.0615C27.4113 10.0551 27.4855 10.0508 27.5605 10.0508H27.5615Z" fill="#281D21"/>
<path d="M37.7178 0.000976562C38.4372 0.000976562 39.0205 0.584316 39.0205 1.30371V6.28711C38.9577 7.31908 38.0377 7.4437 37.6113 7.0625C37.155 6.42215 36.4068 6.00391 35.5605 6.00391C34.1705 6.00412 33.0439 7.13142 33.0439 8.52148C33.0442 9.91137 34.1707 11.0379 35.5605 11.0381C36.3773 11.0381 37.1016 10.6478 37.5615 10.0449L37.5605 10.0527C38.1547 9.77375 39.0205 10.1859 39.0205 11.0781V14.3809C38.9576 15.4145 38.0349 15.5378 37.6094 15.1543C37.1528 14.5156 36.4055 14.0986 35.5605 14.0986C34.1705 14.0988 33.0439 15.2261 33.0439 16.6162C33.0442 18.0061 34.1707 19.1326 35.5605 19.1328C36.3773 19.1328 37.1016 18.7425 37.5615 18.1396L37.5605 18.1465C38.1547 17.8675 39.0205 18.2796 39.0205 19.1719V23.8711C39.0204 24.5904 38.4371 25.1738 37.7178 25.1738H27.1758C26.4564 25.1738 25.8731 24.5904 25.873 23.8711V15.8486C26.443 16.1891 27.1091 16.3877 27.8232 16.3877C29.9324 16.3874 31.6423 14.6775 31.6426 12.5684C31.6426 10.4594 29.933 8.74837 27.8232 8.74805C27.1104 8.74805 26.4439 8.94529 25.873 9.28516V1.30371C25.873 0.584316 26.4564 0.000976562 27.1758 0.000976562H37.7178Z" fill="#281D21"/>
</svg>
