<svg width="20" height="20" viewBox="0 0 20 20" fill="none" xmlns="http://www.w3.org/2000/svg">
<path fill-rule="evenodd" clip-rule="evenodd" d="M10.0371 19.998C7.34077 19.9592 4.7672 18.8645 2.86911 16.949C1.94139 16.0131 1.20985 14.9015 0.717363 13.6792C0.22488 12.4569 -0.01863 11.1486 0.00111103 9.831C0.063513 7.20067 1.16519 4.70212 3.06511 2.882C4.9888 1.03895 7.54802 0.00695449 10.2121 0H10.3881C12.8331 0.0121352 15.1878 0.924977 17.0021 2.564L14.4571 4.88C13.3191 3.86847 11.8487 3.31105 10.3261 3.314C8.5408 3.30745 6.82245 3.99314 5.53211 5.227C4.90104 5.83009 4.39548 6.55203 4.04451 7.35126C3.69355 8.1505 3.50411 9.01126 3.48711 9.884C3.47298 10.7566 3.63204 11.6233 3.95508 12.434C4.27813 13.2447 4.75874 13.9833 5.36911 14.607C6.61725 15.8819 8.31072 16.6238 10.0941 16.677H10.2371C11.6471 16.749 13.0371 16.323 14.1541 15.477C15.2657 14.6395 16.0371 13.4284 16.3261 12.067L16.3691 11.95H10.2201V8.54H19.8981C19.9734 9.158 20.0068 9.77767 19.9981 10.399C19.8991 16.14 15.9811 19.999 10.2521 19.999L10.0371 19.998Z" fill="black"/>
</svg>
