<svg width="40" height="40" viewBox="0 0 40 40" fill="none" xmlns="http://www.w3.org/2000/svg">
<rect width="40" height="40" rx="8" fill="#281D21"/>
<path d="M28.4079 4.98845C29.0705 4.98848 29.6078 5.52515 29.6081 6.18767V20.2072C29.6079 20.8698 29.0705 21.4074 28.4079 21.4074H21.863C20.8451 21.4074 20.0192 22.2323 20.0192 23.2502V33.7511C20.019 34.4137 19.4816 34.9513 18.819 34.9513H11.6315C10.9689 34.9513 10.4315 34.4137 10.4313 33.7511V6.18767C10.4316 5.52516 10.969 4.98849 11.6315 4.98845H28.4079ZM20.0192 10.6281C18.6292 10.6281 17.5026 11.9745 17.5026 13.6349C17.5026 15.2953 18.6292 16.6418 20.0192 16.6418C21.4092 16.6418 22.5358 15.2953 22.5358 13.6349C22.5358 11.9745 21.4093 10.6281 20.0192 10.6281Z" fill="white"/>
</svg>
