<svg width="96" height="44" viewBox="0 0 96 44" fill="none" xmlns="http://www.w3.org/2000/svg">
<path d="M21.4668 0.00195312C23.1761 0.00213184 24.5615 1.38739 24.5615 3.09668V21.8232C24.5613 23.5324 23.1759 24.9188 21.4668 24.9189H16.9521C15.243 24.9191 13.8566 26.3045 13.8564 28.0137V40.209C13.8562 41.9181 12.4709 43.3045 10.7617 43.3047H3.0957C1.3865 43.3046 0.000219535 41.9182 0 40.209V3.09668C3.23665e-05 1.38735 1.38639 0.00206284 3.0957 0.00195312H21.4668ZM12.2822 8.1543C10.2733 8.1543 8.6446 10.0994 8.64453 12.499C8.64453 14.8987 10.2732 16.8437 12.2822 16.8438C14.2912 16.8438 15.9199 14.8987 15.9199 12.499C15.9198 10.0994 14.2912 8.1543 12.2822 8.1543Z" fill="white"/>
<path d="M91.9551 0.00195312C93.6644 0.00207885 95.0508 1.38735 95.0508 3.09668V17.6865C94.6245 19.0436 93.3935 19.7065 92.6338 19.1836C91.8333 17.9791 90.4629 17.1856 88.9082 17.1855C86.4404 17.1858 84.4395 19.1865 84.4395 21.6543C84.4397 24.1219 86.4405 26.1228 88.9082 26.123C90.3556 26.123 91.6424 25.4341 92.459 24.3672L92.458 24.3926C93.5129 23.897 94.7271 25.5788 95.0508 26.1914V40.21C95.0503 41.9189 93.6641 43.3046 91.9551 43.3047H73.7285C72.0195 43.3045 70.6342 41.9189 70.6338 40.21V3.09668C70.6338 1.38738 72.0192 0.00211525 73.7285 0.00195312H91.9551Z" fill="white"/>
<path d="M38.9883 0C40.3558 0 41.4648 1.10902 41.4648 2.47656V40.8262C41.4648 42.1937 40.3558 43.3027 38.9883 43.3027H30.9609C29.5934 43.3027 28.4844 42.1937 28.4844 40.8262V2.47656C28.4844 1.10902 29.5934 0 30.9609 0H38.9883ZM47.4199 17.291C49.8115 17.291 51.75 19.2296 51.75 21.6211C51.7496 24.0122 49.8112 25.9512 47.4199 25.9512L47.4189 25.9502L47.418 25.9512C47.4154 25.9512 47.4127 25.9502 47.4102 25.9502C47.3272 25.95 47.2449 25.9472 47.1631 25.9424C47.1484 25.9415 47.1338 25.9405 47.1191 25.9395C47.0546 25.935 46.9905 25.9291 46.9268 25.9219C46.8921 25.918 46.8577 25.9129 46.8232 25.9082C46.7853 25.903 46.7476 25.8968 46.71 25.8906C46.6648 25.8832 46.6198 25.876 46.5752 25.8672C46.5441 25.861 46.5133 25.8535 46.4824 25.8467C46.4393 25.8372 46.3962 25.8282 46.3535 25.8174C46.3082 25.8059 46.2634 25.7932 46.2188 25.7803C46.0653 25.7361 45.9155 25.6842 45.7695 25.624C45.7516 25.6166 45.7336 25.6092 45.7158 25.6016C45.6685 25.5813 45.6217 25.56 45.5752 25.5381C45.5566 25.5293 45.538 25.5207 45.5195 25.5117C45.1569 25.3344 44.8234 25.1078 44.5264 24.8408C44.5154 24.831 44.504 24.8215 44.4932 24.8115C44.2894 24.6247 44.1025 24.4197 43.9375 24.1973C42.9154 23.7175 41.7794 25.424 41.4658 26.0176V17.7764C41.9038 19.1701 43.2123 19.7406 43.9297 19.0547C44.0982 18.8259 44.2897 18.6151 44.499 18.4238C44.5058 18.4176 44.5127 18.4115 44.5195 18.4053C44.7113 18.2323 44.9182 18.0762 45.1387 17.9395C45.1525 17.9309 45.1658 17.9215 45.1797 17.9131C45.2925 17.8449 45.4091 17.7825 45.5283 17.7246C45.5381 17.7198 45.5478 17.7147 45.5576 17.71C45.6117 17.6842 45.6664 17.6593 45.7217 17.6357C45.7362 17.6296 45.751 17.6242 45.7656 17.6182C45.9137 17.557 46.0659 17.5046 46.2217 17.46C46.2662 17.4472 46.3104 17.4333 46.3555 17.4219C46.399 17.4109 46.4432 17.4022 46.4873 17.3926C46.513 17.3869 46.5386 17.3802 46.5645 17.375C46.6175 17.3644 46.6709 17.3553 46.7246 17.3467C46.7519 17.3423 46.7792 17.3379 46.8066 17.334C46.8478 17.3282 46.8891 17.323 46.9307 17.3184C46.9909 17.3116 47.0514 17.306 47.1123 17.3018C47.1289 17.3006 47.1455 17.2988 47.1621 17.2979C47.2474 17.2928 47.3334 17.291 47.4199 17.291Z" fill="white"/>
<path d="M64.0381 0.00292969C65.7473 0.0030546 67.1336 1.38943 67.1338 3.09863V10.8164C67.0259 12.5888 65.448 12.8052 64.7129 12.1533C63.9282 11.0497 62.6389 10.3294 61.1816 10.3291C58.7902 10.3291 56.8509 12.2679 56.8506 14.6592C56.8506 17.0507 58.7901 18.9893 61.1816 18.9893C62.5846 18.989 63.8319 18.3217 64.623 17.2871L64.6221 17.2949C65.6442 16.8153 67.1336 17.5231 67.1338 19.0576V24.7393C67.0256 26.5141 65.4425 26.7289 64.709 26.0732C63.924 24.9723 62.6368 24.2542 61.1816 24.2539C58.7901 24.2539 56.8507 26.1926 56.8506 28.584C56.8509 30.9752 58.7903 32.9141 61.1816 32.9141C62.5847 32.9138 63.8319 32.2456 64.623 31.2109L64.6221 31.2178C65.6442 30.7381 67.1336 31.4459 67.1338 32.9805V40.2109C67.1338 41.9203 65.7474 43.3065 64.0381 43.3066H47.6113C46.4646 43.3066 45.4656 42.6816 44.9307 41.7549C44.9814 41.4527 45.0098 41.1427 45.0098 40.8262V28.4727C45.7072 28.7641 46.4585 28.951 47.2451 29.0166L47.7158 29.2383L47.708 29.041C47.7612 29.0422 47.8147 29.0459 47.8682 29.0459L48.251 29.0371C52.1736 28.8376 55.2921 25.5933 55.293 21.6221V21.6211C55.293 17.6481 52.174 14.4046 48.248 14.2051L48.2031 14.2021L48.1582 14.2012L47.9355 14.1963H47.8682C46.8545 14.1963 45.8894 14.402 45.0098 14.7695V2.47656C45.0098 2.16143 44.9819 1.85266 44.9316 1.55176C45.467 0.626655 46.4659 0.00292969 47.6113 0.00292969H64.0381Z" fill="white"/>
</svg>
