<svg width="222" height="68" viewBox="0 0 222 68" fill="none" xmlns="http://www.w3.org/2000/svg">
<path d="M190.354 0C195.876 0.00052701 200.353 4.47748 200.353 10V25.8398C201.273 28.7705 204.022 29.9722 205.533 28.5361C207.192 26.2809 209.865 24.8174 212.879 24.8174C217.912 24.8174 221.992 28.8976 221.992 33.9307C221.992 38.9636 217.912 43.0439 212.879 43.0439C209.878 43.0439 207.216 41.5921 205.556 39.3535L205.353 39.2725C203.256 38.5655 200.992 41.9732 200.353 43.1836V58C200.353 63.5227 195.875 67.9997 190.353 68H31.6406C26.1178 68 21.6406 63.5228 21.6406 58V10C21.6406 4.47715 26.1178 0 31.6406 0H190.354ZM9.11328 24.8174C12.1276 24.8174 14.8001 26.2809 16.459 28.5361C17.97 29.9722 20.7193 28.7705 21.6396 25.8398V43.1836C21.0001 41.9732 18.7362 38.5655 16.6396 39.2725L16.4365 39.3535C14.7761 41.5921 12.1145 43.0439 9.11328 43.0439C4.08032 43.0439 0.000155766 38.9636 0 33.9307C0 28.8976 4.08022 24.8174 9.11328 24.8174Z" fill="#D5FFF8"/>
</svg>
