<svg width="154" height="68" viewBox="0 0 154 68" fill="none" xmlns="http://www.w3.org/2000/svg">
<path fill-rule="evenodd" clip-rule="evenodd" d="M143.433 0C148.955 0.000262876 153.433 4.47731 153.433 10V27.7119C152.611 30.3294 150.154 31.4035 148.805 30.1211C147.323 28.1065 144.936 26.7988 142.243 26.7988C137.748 26.799 134.104 30.4438 134.104 34.9395C134.104 39.4348 137.748 43.0789 142.243 43.0791C144.924 43.0791 147.302 41.7828 148.785 39.7832L148.966 39.7109C150.839 39.0787 152.861 42.1227 153.433 43.2041V58C153.433 63.5228 148.954 68 143.432 68H10C4.47738 67.9997 2.25496e-07 63.5227 0 58V10C7.73114e-07 4.47715 4.47813 0 10.001 0H143.433ZM11.1904 26.4795C8.49871 26.4795 6.11279 27.7864 4.63086 29.7998C3.28155 31.0851 0.823489 30.0113 0.000976562 27.3926V42.8848C0.572287 41.8035 2.59498 38.7586 4.46777 39.3906L4.64844 39.4639C6.13165 41.4634 8.5096 42.7598 11.1904 42.7598C15.686 42.7596 19.33 39.1147 19.3301 34.6191C19.3299 30.1237 15.6859 26.4796 11.1904 26.4795Z" fill="#FFDEDE"/>
</svg>
